<svg width="254" height="164" viewBox="0 0 254 164" fill="none" xmlns="http://www.w3.org/2000/svg">
<g clip-path="url(#clip0)">
<path d="M253.615 163.253H0.578228V163.893H253.615V163.253Z" fill="#3F3D56"/>
<path d="M72.4137 17.6683L71.7584 17.3386L69.9829 20.8875L70.6382 21.2172L72.4137 17.6683Z" fill="white"/>
<path d="M68.6375 106.476L68.4204 106.501L68.557 107.677L68.7741 107.652L68.6375 106.476Z" fill="#3F3D56"/>
<path d="M69.9336 116.851L69.8647 116.643L68.7446 117.016L68.8134 117.224L69.9336 116.851Z" fill="white"/>
<path d="M68.9182 110.757L68.7 110.77L68.7709 111.952L68.989 111.938L68.9182 110.757Z" fill="white"/>
<path d="M67.8982 104.278L67.68 104.292L67.7509 105.473L67.969 105.46L67.8982 104.278Z" fill="white"/>
<path d="M83.488 109.111L83.4061 108.907L82.3118 109.351L82.3936 109.554L83.488 109.111Z" fill="#FF6584"/>
<path d="M70.5864 108.765L70.3753 108.708L70.0699 109.852L70.281 109.908L70.5864 108.765Z" fill="#FF6584"/>
<path d="M82.3215 20.1776H81.6325V23.9091H82.3215V20.1776Z" fill="#3F3D56"/>
<path d="M81.9081 29.1608H81.2191V32.8922H81.9081V29.1608Z" fill="white"/>
<path d="M81.3862 107.148L81.2409 107.003L80.4566 107.789L80.6019 107.935L81.3862 107.148Z" fill="white"/>
<path d="M83.4486 119.063L83.3033 118.917L82.519 119.704L82.6643 119.85L83.4486 119.063Z" fill="white"/>
<path d="M81.8032 114.125L81.6048 114.071L81.3177 115.146L81.5161 115.199L81.8032 114.125Z" fill="#FF6584"/>
<path d="M82.3157 110.061L82.1705 109.916L81.3862 110.702L81.5314 110.848L82.3157 110.061Z" fill="#FF6584"/>
<path d="M79.1612 109.928C79.3379 109.75 79.4372 109.51 79.4372 109.259C79.4372 109.009 79.3379 108.768 79.1612 108.591C78.9845 108.414 78.7448 108.314 78.4949 108.314C78.245 108.314 78.0053 108.414 77.8286 108.591L47.7615 138.745C47.5848 138.922 47.4855 139.162 47.4855 139.413C47.4855 139.664 47.5848 139.904 47.7615 140.081C47.9382 140.258 48.1779 140.358 48.4278 140.358C48.6777 140.358 48.9174 140.258 49.0941 140.081L78.9677 110.122" fill="#3F3D56"/>
<path d="M82.2344 106.122C80.0444 103.928 77.198 102.514 74.1308 102.096C71.0636 101.678 67.9443 102.28 65.2501 103.808C62.5558 105.336 60.4349 107.708 59.2118 110.559C57.9886 113.411 57.7305 116.586 58.477 119.599C59.2235 122.611 60.9334 125.296 63.3453 127.242C65.7571 129.188 68.7381 130.288 71.8323 130.373C74.9265 130.459 77.9636 129.526 80.4791 127.717C82.9945 125.908 84.8499 123.323 85.7613 120.356C86.5194 117.886 86.5916 115.255 85.9702 112.747C85.3487 110.239 84.0572 107.949 82.2344 106.122ZM70.6362 121.581C69.6611 121.309 68.7727 120.789 68.0574 120.071C67.9128 119.926 67.7789 119.773 67.6503 119.617C66.7669 118.526 66.3017 117.153 66.3388 115.748C66.3758 114.343 66.9127 112.997 67.8524 111.953C68.7921 110.91 70.0727 110.238 71.4631 110.059C72.8535 109.88 74.262 110.205 75.4344 110.975C76.6068 111.746 77.4657 112.912 77.8561 114.262C78.2466 115.613 78.1429 117.058 77.5636 118.339C76.9844 119.619 75.9678 120.649 74.6975 121.244C73.4271 121.838 71.9867 121.958 70.6362 121.581Z" fill="#D78B45"/>
<path d="M50.1303 27.1326C50.1303 26.2918 49.7973 25.4855 49.2045 24.891C48.6117 24.2965 47.8077 23.9625 46.9694 23.9625C46.131 23.9625 45.327 24.2965 44.7342 24.891C44.1414 25.4855 43.8084 26.2918 43.8084 27.1326V160.742C43.8084 161.158 43.8902 161.57 44.049 161.955C44.2079 162.339 44.4407 162.689 44.7342 162.983C45.0278 163.277 45.3762 163.511 45.7597 163.67C46.1432 163.83 46.5543 163.912 46.9694 163.912C47.3845 163.912 47.7955 163.83 48.179 163.67C48.5625 163.511 48.911 163.277 49.2045 162.983C49.498 162.689 49.7309 162.339 49.8897 161.955C50.0486 161.57 50.1303 161.158 50.1303 160.742V28.0533" fill="#3F3D56"/>
<path d="M90.4515 25.9483C85.0237 15.6522 76.0268 7.70384 65.1578 3.60228C54.2888 -0.499279 42.2989 -0.470507 31.4496 3.68317C20.6003 7.83685 11.6415 15.8283 6.26288 26.1503C0.884302 36.4723 -0.542255 48.4113 2.25228 59.7154C5.04681 71.0196 11.8693 80.9076 21.4328 87.5144C30.9964 94.1212 42.6401 96.9902 54.1676 95.5801C65.6952 94.1701 76.3099 88.5786 84.0097 79.8601C91.7094 71.1417 95.962 59.899 95.9654 48.2526C95.9686 40.4781 94.0756 32.8209 90.4515 25.9483ZM58.1072 65.4676C54.3361 67.6024 49.969 68.4322 45.6806 67.8288C41.3923 67.2254 37.4214 65.2224 34.3817 62.1294C31.342 59.0363 29.4026 55.0254 28.8633 50.7164C28.324 46.4074 29.2148 42.0402 31.3979 38.2897C33.5811 34.5392 36.9352 31.6141 40.9418 29.9665C44.9484 28.319 49.3846 28.0406 53.5648 29.1745C57.7449 30.3083 61.4364 32.7913 64.0687 36.2396C66.701 39.688 68.1276 43.9098 68.1281 48.2526C68.1385 51.7572 67.2151 55.2009 65.4533 58.2275C63.6915 61.2541 61.1554 63.7537 58.1072 65.4676Z" fill="#D78B45"/>
<path opacity="0.2" d="M48.2834 92.8909C35.9312 92.8907 24.064 88.0692 15.1947 79.4472C6.32545 70.8253 1.15042 59.0799 0.765462 46.6982C0.749001 47.214 0.740585 47.7317 0.740213 48.2515C0.738684 54.5139 1.9673 60.7152 4.35588 66.5014C6.74446 72.2875 10.2462 77.5451 14.6612 81.9738C19.0761 86.4025 24.3178 89.9157 30.0867 92.3125C35.8557 94.7094 42.0389 95.9431 48.2834 95.9431C54.5278 95.9431 60.7111 94.7094 66.4801 92.3125C72.249 89.9157 77.4907 86.4025 81.9056 81.9738C86.3206 77.5451 89.8223 72.2875 92.2109 66.5014C94.5995 60.7152 95.8281 54.5139 95.8266 48.2515C95.8266 47.7311 95.8182 47.2127 95.8014 46.6964C95.4169 59.0784 90.2421 70.8242 81.3727 79.4466C72.5033 88.0689 60.6359 92.8907 48.2834 92.8909V92.8909Z" fill="black"/>
<path opacity="0.2" d="M48.4211 24.4604C43.7293 24.4607 39.143 25.8562 35.242 28.4705C31.341 31.0847 28.3007 34.8004 26.5053 39.1475C24.71 43.4947 24.2403 48.2781 25.1557 52.893C26.0711 57.5078 28.3304 61.7468 31.648 65.0739C34.9656 68.4011 39.1924 70.6669 43.794 71.5849C48.3957 72.5029 53.1654 72.0319 57.5001 70.2314C61.8347 68.4309 65.5397 65.3818 68.1465 61.4696C70.7533 57.5574 72.1448 52.9579 72.145 48.2526C72.138 41.9447 69.6363 35.8971 65.1887 31.4367C60.7411 26.9763 54.7109 24.4674 48.4211 24.4604V24.4604ZM58.1072 65.4676C54.3361 67.6024 49.969 68.4322 45.6806 67.8288C41.3923 67.2254 37.4214 65.2224 34.3817 62.1294C31.342 59.0363 29.4026 55.0254 28.8633 50.7164C28.324 46.4074 29.2147 42.0402 31.3979 38.2897C33.5811 34.5392 36.9352 31.6141 40.9418 29.9665C44.9484 28.319 49.3846 28.0406 53.5648 29.1745C57.7449 30.3083 61.4364 32.7913 64.0687 36.2396C66.701 39.688 68.1276 43.9098 68.1281 48.2526C68.1385 51.7572 67.2151 55.2009 65.4533 58.2275C63.6915 61.2541 61.1553 63.7537 58.1072 65.4676V65.4676Z" fill="black"/>
<path d="M90.4521 25.3754V33.3068C90.4526 33.8859 90.2801 34.4519 89.957 34.9319C89.6338 35.4118 89.1748 35.7837 88.639 35.9998C88.1033 36.2158 87.5153 36.266 86.9508 36.144C86.3863 36.0219 85.8712 35.7332 85.4718 35.3149V36.2188C85.4718 37.1325 85.1099 38.0089 84.4656 38.655C83.8213 39.3012 82.9475 39.6642 82.0363 39.6642C81.1251 39.6642 80.2513 39.3012 79.607 38.655C78.9627 38.0089 78.6008 37.1325 78.6008 36.2188V35.4656C78.1852 35.8404 77.6702 36.0864 77.118 36.1737C76.5659 36.261 76.0004 36.1859 75.49 35.9575C74.9795 35.729 74.5461 35.357 74.2422 34.8866C73.9383 34.4161 73.7769 33.8674 73.7776 33.3069L73.6398 24.8765V22.932C73.6393 22.6207 73.5156 22.3224 73.296 22.1025C73.0764 21.8826 72.7787 21.7591 72.4684 21.7591C72.1581 21.7591 71.8604 21.8826 71.6408 22.1025C71.4212 22.3224 71.2975 22.6207 71.297 22.932V24.8765L71.1592 31.9248C71.1592 32.6946 70.8543 33.4328 70.3116 33.977C69.7689 34.5213 69.0328 34.8271 68.2653 34.8271C67.4978 34.8271 66.7617 34.5213 66.219 33.977C65.6763 33.4328 65.3714 32.6946 65.3714 31.9248L65.0172 24.8765V21.2735C65.0172 20.7629 64.815 20.2733 64.455 19.9122C64.095 19.5512 63.6067 19.3484 63.0976 19.3484C62.5884 19.3484 62.1002 19.5512 61.7402 19.9122C61.3802 20.2733 61.1779 20.7629 61.1779 21.2735V24.8765L60.9616 31.9248C60.962 32.5284 60.7747 33.1171 60.4256 33.6089C60.0766 34.1006 59.5833 34.4708 59.0144 34.668C58.4456 34.8652 57.8295 34.8794 57.2522 34.7087C56.6749 34.5381 56.1651 34.191 55.7938 33.7159C55.3362 34.3027 54.6705 34.6899 53.9354 34.797C53.2003 34.9041 52.4523 34.7228 51.8471 34.2908V36.2188C51.8471 37.1325 51.4851 38.0089 50.8408 38.655C50.1965 39.3012 49.3227 39.6642 48.4115 39.6642C47.5004 39.6642 46.6266 39.3012 45.9823 38.655C45.338 38.0089 44.976 37.1325 44.976 36.2188V30.2664C44.9763 30.9303 44.7495 31.5743 44.3334 32.0907C43.9174 32.6072 43.3373 32.9649 42.69 33.1041C42.0426 33.2434 41.3673 33.1557 40.7766 32.8558C40.186 32.5559 39.7158 32.0619 39.4445 31.4563V36.2188C39.4445 37.1325 39.0825 38.0089 38.4382 38.655C37.794 39.3012 36.9201 39.6642 36.009 39.6642C35.0978 39.6642 34.224 39.3012 33.5797 38.655C32.9354 38.0089 32.5735 37.1325 32.5735 36.2188V24.8765H32.5542V36.2188C32.5542 37.1325 32.1922 38.0089 31.5479 38.655C30.9036 39.3012 30.0298 39.6642 29.1186 39.6642C28.2075 39.6642 27.3337 39.3012 26.6894 38.655C26.0451 38.0089 25.6831 37.1325 25.6831 36.2188V31.4964C25.4044 32.0944 24.9306 32.5792 24.34 32.8706C23.7495 33.1621 23.0774 33.2428 22.4349 33.0994C21.7924 32.956 21.2179 32.5972 20.8063 32.0821C20.3946 31.567 20.1705 30.9265 20.1709 30.2664V24.8765H19.876V34.5603C19.876 35.4741 19.514 36.3505 18.8697 36.9966C18.2254 37.6427 17.3516 38.0057 16.4405 38.0057C15.5293 38.0057 14.6555 37.6427 14.0112 36.9966C13.3669 36.3505 13.0049 35.4741 13.0049 34.5603V30.2664C13.0053 30.6478 12.9307 31.0255 12.7855 31.3779C12.6402 31.7304 12.4271 32.0506 12.1583 32.3204C11.8896 32.5903 11.5704 32.8043 11.2191 32.9503C10.8678 33.0964 10.4913 33.1715 10.111 33.1715C9.73074 33.1715 9.35418 33.0964 9.00289 32.9503C8.65159 32.8043 8.33244 32.5903 8.06368 32.3204C7.79492 32.0506 7.58181 31.7304 7.43654 31.3779C7.29128 31.0255 7.21671 30.6478 7.21708 30.2664V23.8773C11.4614 16.4928 17.6012 10.3839 24.9978 6.18603C32.3945 1.98815 40.7776 -0.145294 49.2752 0.00765106C57.7727 0.160596 66.0741 2.59434 73.3158 7.05569C80.5575 11.517 86.4748 17.843 90.4521 25.3754V25.3754Z" fill="#EEA8A8"/>
<path opacity="0.2" d="M29.1186 38.0057C28.6675 38.0058 28.2207 37.9167 27.8039 37.7435C27.3871 37.5704 27.0083 37.3166 26.6893 36.9967C26.3703 36.6767 26.1172 36.2969 25.9446 35.8789C25.7719 35.4609 25.6831 35.0128 25.6831 34.5603V36.357C25.6831 37.2708 26.0451 38.1471 26.6894 38.7932C27.3337 39.4394 28.2075 39.8024 29.1187 39.8024C30.0298 39.8024 30.9036 39.4394 31.5479 38.7932C32.1922 38.1471 32.5542 37.2708 32.5542 36.357V34.5603C32.5542 35.0128 32.4654 35.4609 32.2927 35.8789C32.1201 36.2969 31.867 36.6767 31.548 36.9967C31.229 37.3166 30.8502 37.5704 30.4334 37.7435C30.0166 37.9167 29.5698 38.0058 29.1186 38.0057Z" fill="black"/>
<path opacity="0.2" d="M36.009 38.0057C35.5578 38.0058 35.111 37.9167 34.6942 37.7435C34.2774 37.5704 33.8986 37.3166 33.5796 36.9967C33.2606 36.6767 33.0075 36.2969 32.8349 35.8789C32.6623 35.4609 32.5734 35.0128 32.5735 34.5603V36.357C32.5735 37.2708 32.9354 38.1471 33.5797 38.7932C34.224 39.4394 35.0978 39.8024 36.009 39.8024C36.9201 39.8024 37.794 39.4394 38.4383 38.7932C39.0825 38.1471 39.4445 37.2708 39.4445 36.357V34.5603C39.4445 35.0128 39.3557 35.4609 39.1831 35.8789C39.0104 36.2969 38.7574 36.6767 38.4383 36.9967C38.1193 37.3166 37.7406 37.5704 37.3237 37.7435C36.9069 37.9167 36.4601 38.0058 36.009 38.0057V38.0057Z" fill="black"/>
<path opacity="0.2" d="M25.6831 29.838C25.4044 30.436 24.9306 30.9207 24.3401 31.2122C23.7495 31.5036 23.0774 31.5843 22.4349 31.441C21.7924 31.2976 21.2179 30.9387 20.8063 30.4236C20.3946 29.9086 20.1705 29.2681 20.1709 28.608V30.4046C20.1705 31.0647 20.3946 31.7052 20.8063 32.2203C21.2179 32.7354 21.7924 33.0942 22.4349 33.2376C23.0774 33.381 23.7495 33.3003 24.3401 33.0088C24.9306 32.7174 25.4044 32.2326 25.6831 31.6346V29.838Z" fill="black"/>
<path opacity="0.2" d="M32.5735 23.218H32.5542V25.0147H32.5735V23.218Z" fill="black"/>
<path opacity="0.2" d="M13.005 28.608C13.0042 29.3772 12.699 30.1146 12.1563 30.6583C11.6137 31.202 10.8781 31.5073 10.111 31.5073C9.34401 31.5073 8.60836 31.202 8.06573 30.6583C7.52309 30.1146 7.21786 29.3772 7.2171 28.608V30.4046C7.21786 31.1738 7.52309 31.9113 8.06573 32.4549C8.60836 32.9986 9.34401 33.304 10.111 33.304C10.8781 33.304 11.6137 32.9986 12.1563 32.4549C12.699 31.9113 13.0042 31.1738 13.005 30.4046V28.608Z" fill="black"/>
<path opacity="0.2" d="M20.1709 23.218H19.876V25.0147H20.1709V23.218Z" fill="black"/>
<path opacity="0.2" d="M16.4405 36.3473C15.9893 36.3473 15.5425 36.2583 15.1257 36.0851C14.7089 35.912 14.3301 35.6582 14.0111 35.3383C13.6921 35.0183 13.439 34.6385 13.2664 34.2205C13.0938 33.8024 13.0049 33.3544 13.005 32.9019V34.6986C13.005 35.6123 13.3669 36.4887 14.0112 37.1348C14.6555 37.781 15.5293 38.144 16.4405 38.144C17.3516 38.144 18.2255 37.781 18.8698 37.1348C19.514 36.4887 19.876 35.6123 19.876 34.6986V32.9019C19.876 33.3544 19.7872 33.8024 19.6146 34.2205C19.4419 34.6385 19.1889 35.0183 18.8698 35.3383C18.5508 35.6582 18.1721 35.912 17.7552 36.0851C17.3384 36.2583 16.8916 36.3473 16.4405 36.3473V36.3473Z" fill="black"/>
<path opacity="0.2" d="M48.4115 38.0057C47.9604 38.0058 47.5136 37.9167 47.0968 37.7435C46.68 37.5704 46.3012 37.3166 45.9822 36.9967C45.6632 36.6767 45.4101 36.2969 45.2375 35.8789C45.0648 35.4609 44.976 35.0128 44.976 34.5603V36.357C44.976 37.2708 45.338 38.1471 45.9823 38.7932C46.6266 39.4394 47.5004 39.8024 48.4115 39.8024C49.3227 39.8024 50.1965 39.4394 50.8408 38.7932C51.4851 38.1471 51.8471 37.2708 51.8471 36.357V34.5603C51.8471 35.0128 51.7583 35.4609 51.5856 35.8789C51.413 36.2969 51.1599 36.6767 50.8409 36.9967C50.5219 37.3166 50.1431 37.5704 49.7263 37.7435C49.3095 37.9167 48.8627 38.0058 48.4115 38.0057Z" fill="black"/>
<path opacity="0.2" d="M73.6398 21.2735C73.6398 20.962 73.5164 20.6632 73.2967 20.4429C73.077 20.2226 72.7791 20.0988 72.4684 20.0988C72.1577 20.0988 71.8598 20.2226 71.6401 20.4429C71.4205 20.6632 71.2971 20.962 71.2971 21.2735V23.0702C71.2968 22.9158 71.3269 22.7628 71.3857 22.6201C71.4445 22.4773 71.5307 22.3476 71.6395 22.2383C71.7483 22.1291 71.8775 22.0424 72.0197 21.9832C72.162 21.9241 72.3144 21.8936 72.4684 21.8936C72.6224 21.8936 72.7749 21.9241 72.9171 21.9832C73.0593 22.0424 73.1885 22.1291 73.2973 22.2383C73.4061 22.3476 73.4924 22.4773 73.5511 22.6201C73.6099 22.7628 73.64 22.9158 73.6398 23.0702V21.2735Z" fill="black"/>
<path opacity="0.2" d="M44.976 28.608C44.9763 29.2719 44.7495 29.9158 44.3334 30.4323C43.9174 30.9487 43.3373 31.3064 42.69 31.4457C42.0426 31.5849 41.3673 31.4973 40.7766 31.1974C40.186 30.8975 39.7158 30.4035 39.4445 29.7979V31.5945C39.7158 32.2002 40.186 32.6942 40.7766 32.994C41.3673 33.2939 42.0426 33.3816 42.69 33.2423C43.3373 33.1031 43.9174 32.7454 44.3334 32.2289C44.7495 31.7125 44.9763 31.0685 44.976 30.4046V28.608Z" fill="black"/>
<path opacity="0.2" d="M68.2653 33.1686C67.8853 33.1687 67.5089 33.0937 67.1578 32.9478C66.8067 32.802 66.4876 32.5882 66.2189 32.3187C65.9501 32.0492 65.737 31.7292 65.5916 31.3771C65.4461 31.025 65.3713 30.6475 65.3714 30.2664L65.0172 23.2181V25.0147L65.3714 32.063C65.3714 32.8328 65.6763 33.571 66.219 34.1152C66.7617 34.6595 67.4978 34.9653 68.2653 34.9653C69.0328 34.9653 69.7689 34.6595 70.3116 34.1152C70.8544 33.571 71.1593 32.8328 71.1593 32.063L71.2971 25.0147V23.2181L71.1593 30.2664C71.1593 30.6475 71.0845 31.025 70.9391 31.3771C70.7936 31.7292 70.5805 32.0492 70.3117 32.3187C70.043 32.5882 69.724 32.802 69.3728 32.9478C69.0217 33.0937 68.6454 33.1687 68.2653 33.1686V33.1686Z" fill="black"/>
<path opacity="0.2" d="M87.5582 34.5507C87.1682 34.5508 86.7823 34.4717 86.4236 34.318C86.065 34.1643 85.7412 33.9393 85.4718 33.6565V34.5604C85.4718 35.4741 85.1098 36.3505 84.4656 36.9966C83.8213 37.6428 82.9474 38.0058 82.0363 38.0058C81.1251 38.0058 80.2513 37.6428 79.607 36.9966C78.9627 36.3505 78.6008 35.4741 78.6008 34.5604V33.8071C78.1852 34.182 77.6701 34.428 77.118 34.5153C76.5659 34.6026 76.0004 34.5275 75.4899 34.299C74.9795 34.0706 74.5461 33.6986 74.2422 33.2282C73.9382 32.7577 73.7769 32.209 73.7775 31.6484L73.6397 23.2181V25.0147L73.7776 33.4451C73.7769 34.0056 73.9382 34.5544 74.2422 35.0248C74.5461 35.4953 74.9795 35.8672 75.4899 36.0957C76.0004 36.3241 76.5659 36.3993 77.118 36.312C77.6702 36.2247 78.1852 35.9787 78.6008 35.6038V36.357C78.6008 37.2708 78.9627 38.1471 79.607 38.7933C80.2513 39.4394 81.1251 39.8024 82.0363 39.8024C82.9474 39.8024 83.8213 39.4394 84.4656 38.7933C85.1099 38.1471 85.4718 37.2708 85.4718 36.357V35.4532C85.8712 35.8714 86.3863 36.1601 86.9508 36.2822C87.5153 36.4042 88.1033 36.354 88.639 36.138C89.1748 35.922 89.6338 35.55 89.9569 35.0701C90.2801 34.5902 90.4526 34.0242 90.4521 33.4451V31.6484C90.4522 32.0296 90.3774 32.407 90.2319 32.7591C90.0865 33.1113 89.8734 33.4312 89.6046 33.7007C89.3359 33.9702 89.0168 34.184 88.6657 34.3299C88.3146 34.4757 87.9382 34.5507 87.5582 34.5507V34.5507Z" fill="black"/>
<path opacity="0.2" d="M58.0676 33.1686C57.6294 33.1687 57.1969 33.0686 56.8029 32.8761C56.409 32.6836 56.0639 32.4036 55.7938 32.0575C55.3362 32.6443 54.6705 33.0315 53.9354 33.1386C53.2003 33.2457 52.4523 33.0644 51.8471 32.6324V34.4291C52.4523 34.861 53.2003 35.0423 53.9354 34.9352C54.6705 34.8281 55.3362 34.4409 55.7938 33.8541C56.1651 34.3292 56.6749 34.6763 57.2522 34.8469C57.8295 35.0176 58.4456 35.0034 59.0144 34.8062C59.5833 34.6091 60.0766 34.2388 60.4256 33.7471C60.7747 33.2553 60.962 32.6666 60.9616 32.063L61.1779 25.0147V23.218L60.9616 30.2664C60.9616 30.6475 60.8868 31.025 60.7414 31.3771C60.596 31.7292 60.3828 32.0492 60.1141 32.3187C59.8453 32.5882 59.5263 32.802 59.1752 32.9478C58.824 33.0937 58.4477 33.1687 58.0676 33.1686Z" fill="black"/>
<path opacity="0.2" d="M65.0172 19.6151C65.0172 19.1045 64.8149 18.6149 64.4549 18.2538C64.0949 17.8928 63.6067 17.69 63.0976 17.69C62.5884 17.69 62.1002 17.8928 61.7402 18.2538C61.3802 18.6149 61.1779 19.1045 61.1779 19.6151V21.4117C61.1779 20.9012 61.3802 20.4115 61.7402 20.0505C62.1002 19.6894 62.5884 19.4866 63.0976 19.4866C63.6067 19.4866 64.0949 19.6894 64.4549 20.0505C64.8149 20.4115 65.0172 20.9012 65.0172 21.4117V19.6151Z" fill="black"/>
<path d="M32.918 19.9703H32.2289V23.7018H32.918V19.9703Z" fill="#3F3D56"/>
<path d="M45.9407 17.9664H45.2516V21.6978H45.9407V17.9664Z" fill="#3F3D56"/>
<path d="M29.4039 32.6158H28.7149V36.3473H29.4039V32.6158Z" fill="#3F3D56"/>
<path d="M57.5485 26.0956L56.9819 25.7024L54.8648 28.771L55.4315 29.1642L57.5485 26.0956Z" fill="#3F3D56"/>
<path d="M21.0617 20.2001L20.6342 20.742L23.5521 23.0574L23.9796 22.5154L21.0617 20.2001Z" fill="#3F3D56"/>
<path d="M61.5768 6.24163L61.1492 6.78354L64.0671 9.09888L64.4947 8.55697L61.5768 6.24163Z" fill="#3F3D56"/>
<path d="M13.4824 24.0698L13.0548 24.6117L15.9727 26.927L16.4003 26.3851L13.4824 24.0698Z" fill="#3F3D56"/>
<path d="M35.4674 11.1944H34.7784V14.9259H35.4674V11.1944Z" fill="white"/>
<path d="M16.5879 30.4046H15.8989V34.1361H16.5879V30.4046Z" fill="white"/>
<path d="M48.8346 5.80452H48.1456V9.53599H48.8346V5.80452Z" fill="white"/>
<path d="M52.664 18.8722L52.0482 18.5623L50.3796 21.8976L50.9955 22.2075L52.664 18.8722Z" fill="white"/>
<path d="M49.4945 32.6925L48.8786 32.3826L47.2101 35.7178L47.8259 36.0277L49.4945 32.6925Z" fill="white"/>
<path d="M40.0228 25.1078L39.5657 25.6248L42.3499 28.1003L42.807 27.5832L40.0228 25.1078Z" fill="white"/>
<path d="M26.38 8.93804L25.9229 9.45511L28.7071 11.9305L29.1642 11.4135L26.38 8.93804Z" fill="white"/>
<path d="M71.7183 15.1572L71.2612 15.6742L74.0453 18.1497L74.5024 17.6326L71.7183 15.1572Z" fill="white"/>
<path d="M55.0437 2.99533L54.5866 3.51239L57.3708 5.98783L57.8279 5.47076L55.0437 2.99533Z" fill="white"/>
<path d="M40.704 17.9664H40.015V21.6978H40.704V17.9664Z" fill="#FF6584"/>
<path d="M79.576 20.3228L78.9418 20.0527L77.4877 23.4875L78.122 23.7575L79.576 20.3228Z" fill="#FF6584"/>
<path d="M26.9117 23.9863L26.315 24.3318L28.1754 27.5633L28.7721 27.2178L26.9117 23.9863Z" fill="#FF6584"/>
<path d="M66.3243 21.3604L65.7276 21.7059L67.588 24.9375L68.1847 24.592L66.3243 21.3604Z" fill="#FF6584"/>
<path d="M41.7952 7.6786L41.1985 8.02411L43.0588 11.2557L43.6556 10.9102L41.7952 7.6786Z" fill="#FF6584"/>
<path d="M71.0097 6.98735L70.413 7.33286L72.2734 10.5644L72.8701 10.2189L71.0097 6.98735Z" fill="#FF6584"/>
<path d="M33.113 3.94688L32.5163 4.29239L34.3767 7.52394L34.9734 7.17843L33.113 3.94688Z" fill="#FF6584"/>
<path d="M57.9298 10.5034H57.2408V14.2349H57.9298V10.5034Z" fill="#FF6584"/>
<path d="M18.2416 16.7225H17.5526V20.454H18.2416V16.7225Z" fill="#FF6584"/>
<path opacity="0.2" d="M62.801 125.554C60.1974 122.943 58.7093 119.418 58.652 115.725C58.5946 112.033 59.9725 108.463 62.4938 105.772C62.3819 105.877 62.2713 105.985 62.162 106.094C60.845 107.414 59.8002 108.981 59.0873 110.705C58.3743 112.43 58.0071 114.279 58.0067 116.146C58.0064 118.013 58.3728 119.861 59.085 121.586C59.7973 123.311 60.8414 124.879 62.1578 126.199C63.4742 127.519 65.037 128.566 66.7571 129.281C68.4771 129.995 70.3206 130.362 72.1823 130.362C74.0439 130.362 75.8873 129.993 77.607 129.278C79.3268 128.563 80.8892 127.516 82.205 126.195C82.3144 126.085 82.4216 125.974 82.5266 125.862C79.843 128.39 76.2835 129.772 72.6016 129.715C68.9198 129.657 65.4048 128.165 62.801 125.554V125.554Z" fill="black"/>
<path opacity="0.2" d="M77.7864 110.583C76.6837 109.476 75.2787 108.723 73.7488 108.417C72.219 108.111 70.6332 108.268 69.192 108.866C67.7508 109.464 66.5189 110.478 65.6521 111.779C64.7854 113.079 64.3228 114.609 64.3228 116.173C64.3228 117.737 64.7854 119.267 65.6521 120.567C66.5189 121.868 67.7508 122.881 69.192 123.48C70.6332 124.078 72.219 124.235 73.7488 123.929C75.2787 123.623 76.6837 122.87 77.7864 121.763C79.2617 120.279 80.0901 118.269 80.0901 116.173C80.0901 114.077 79.2617 112.067 77.7864 110.583V110.583ZM76.367 120.071C75.2649 121.176 73.7704 121.796 72.2122 121.796C70.654 121.796 69.1595 121.176 68.0574 120.071C67.9128 119.926 67.7789 119.773 67.6503 119.617C66.9347 118.733 66.4902 117.659 66.3706 116.526C66.251 115.393 66.4615 114.25 66.9765 113.235C67.4915 112.219 68.289 111.375 69.2723 110.805C70.2557 110.235 71.3828 109.963 72.5172 110.022C73.6515 110.081 74.7445 110.469 75.6637 111.138C76.5829 111.807 77.289 112.729 77.6964 113.793C78.1038 114.856 78.195 116.015 77.9591 117.129C77.7231 118.244 77.1701 119.266 76.367 120.071V120.071Z" fill="black"/>
<path d="M86.0452 120.071L84.3781 121.743C84.2565 121.865 84.1012 121.948 83.9322 121.981C83.7632 122.014 83.5883 121.995 83.4299 121.928C83.2716 121.86 83.1371 121.746 83.0438 121.601C82.9504 121.456 82.9025 121.286 82.9063 121.114L82.7163 121.304C82.5242 121.497 82.2637 121.605 81.9921 121.605C81.7205 121.605 81.46 121.497 81.268 121.304C81.0759 121.112 80.968 120.85 80.968 120.578C80.968 120.306 81.0759 120.044 81.268 119.852L81.4263 119.693C81.2599 119.684 81.0996 119.627 80.9649 119.529C80.8301 119.43 80.7267 119.295 80.6672 119.139C80.6076 118.983 80.5944 118.813 80.6292 118.65C80.664 118.486 80.7454 118.336 80.8633 118.218L82.6062 116.412L83.0149 116.002C83.0804 115.937 83.1172 115.848 83.1172 115.755C83.1172 115.662 83.0804 115.573 83.0149 115.507C82.9494 115.441 82.8606 115.404 82.768 115.404C82.6754 115.404 82.5866 115.441 82.5211 115.507L82.1124 115.917L80.6019 117.373C80.4401 117.536 80.2207 117.627 79.9919 117.627C79.7631 117.627 79.5436 117.536 79.3819 117.373C79.2201 117.211 79.1292 116.991 79.1292 116.762C79.1292 116.532 79.2201 116.312 79.3819 116.15L80.7887 114.589L81.5459 113.83C81.6525 113.722 81.7121 113.576 81.7118 113.425C81.7115 113.273 81.6512 113.127 81.5442 113.02C81.4372 112.913 81.2921 112.852 81.1408 112.852C80.9895 112.852 80.8442 112.911 80.7367 113.018L79.9794 113.778L78.4523 115.218C77.7674 114.81 77.0359 114.488 76.2738 114.256C76.1473 114.13 76.0635 113.967 76.0338 113.79L75.6286 114.196C75.4366 114.389 75.1761 114.497 74.9044 114.497C74.6328 114.497 74.3723 114.389 74.1803 114.196C73.9882 114.004 73.8803 113.742 73.8803 113.47C73.8803 113.197 73.9882 112.936 74.1803 112.744L75.4314 111.489C75.2919 111.629 75.1087 111.717 74.9125 111.738C74.7162 111.759 74.5188 111.711 74.353 111.604C74.1873 111.496 74.0634 111.335 74.0019 111.147C73.9405 110.959 73.9452 110.755 74.0153 110.57L73.0143 111.574C72.8222 111.767 72.5617 111.875 72.2901 111.875C72.0185 111.875 71.758 111.767 71.5659 111.574C71.3739 111.382 71.266 111.12 71.266 110.848C71.266 110.576 71.3739 110.314 71.5659 110.122L73.9499 107.731L73.9458 107.727L71.5619 110.118C71.3698 110.31 71.1093 110.419 70.8377 110.419C70.5661 110.419 70.3056 110.31 70.1135 110.118C69.9215 109.925 69.8136 109.664 69.8136 109.391C69.8136 109.119 69.9215 108.858 70.1135 108.665L71.1061 107.67C70.9217 107.737 70.7199 107.739 70.5342 107.676C70.3484 107.612 70.1898 107.487 70.0845 107.321C69.9792 107.155 69.9335 106.958 69.955 106.762C69.9765 106.567 70.0639 106.384 70.2027 106.245L71.3356 105.109L71.2734 105.047L69.238 107.088C69.046 107.281 68.7855 107.389 68.5139 107.389C68.2423 107.389 67.9818 107.281 67.7897 107.088C67.5976 106.895 67.4897 106.634 67.4897 106.362C67.4897 106.089 67.5976 105.828 67.7897 105.636L68.6922 104.73C68.5304 104.893 68.311 104.984 68.0822 104.984C67.8534 104.984 67.634 104.893 67.4722 104.73C67.3104 104.568 67.2195 104.348 67.2195 104.119C67.2195 103.889 67.3104 103.669 67.4722 103.507L68.8151 102.16C71.2618 101.501 73.84 101.511 76.2815 102.19C78.7229 102.869 80.9384 104.191 82.6974 106.02C84.4565 107.848 85.6948 110.116 86.2835 112.587C86.8723 115.059 86.79 117.643 86.0452 120.071Z" fill="#864747"/>
<path opacity="0.2" d="M70.4621 109.768C70.367 109.673 70.2916 109.56 70.2401 109.435C70.1886 109.31 70.1621 109.177 70.1621 109.042C70.1621 108.907 70.1886 108.773 70.2401 108.649C70.2916 108.524 70.367 108.411 70.4621 108.316L70.0845 108.694C69.8924 108.887 69.7845 109.148 69.7845 109.421C69.7845 109.693 69.8924 109.954 70.0845 110.147C70.2766 110.339 70.537 110.448 70.8087 110.448C71.0803 110.448 71.3408 110.339 71.5328 110.147L71.9104 109.768C71.8153 109.864 71.7025 109.939 71.5782 109.991C71.4539 110.042 71.3208 110.069 71.1863 110.069C71.0518 110.069 70.9186 110.042 70.7944 109.991C70.6701 109.939 70.5572 109.864 70.4621 109.768V109.768Z" fill="black"/>
<path opacity="0.2" d="M71.9145 111.225C71.8194 111.129 71.7439 111.016 71.6925 110.892C71.641 110.767 71.6145 110.633 71.6145 110.498C71.6145 110.364 71.641 110.23 71.6925 110.105C71.7439 109.981 71.8194 109.868 71.9145 109.772L71.5369 110.151C71.4418 110.246 71.3663 110.36 71.3149 110.484C71.2634 110.609 71.2369 110.742 71.2369 110.877C71.2369 111.012 71.2634 111.146 71.3149 111.27C71.3663 111.395 71.4418 111.508 71.5369 111.603C71.632 111.699 71.7449 111.774 71.8691 111.826C71.9934 111.878 72.1265 111.904 72.261 111.904C72.3955 111.904 72.5287 111.878 72.653 111.826C72.7772 111.774 72.8901 111.699 72.9852 111.603L73.3628 111.225C73.2677 111.32 73.1548 111.396 73.0306 111.447C72.9063 111.499 72.7732 111.526 72.6387 111.526C72.5042 111.526 72.371 111.499 72.2467 111.447C72.1225 111.396 72.0096 111.32 71.9145 111.225V111.225Z" fill="black"/>
<path opacity="0.2" d="M71.4547 107.32C71.2702 107.387 71.0685 107.389 70.8827 107.326C70.697 107.263 70.5383 107.138 70.433 106.971C70.3277 106.805 70.2821 106.608 70.3036 106.413C70.3251 106.217 70.4124 106.035 70.5513 105.896L70.1737 106.274C70.0348 106.413 69.9474 106.596 69.9259 106.791C69.9044 106.987 69.9501 107.184 70.0554 107.35C70.1607 107.516 70.3193 107.641 70.5051 107.705C70.6908 107.768 70.8926 107.766 71.077 107.699L71.4547 107.32Z" fill="black"/>
<path opacity="0.2" d="M74.2944 107.377L73.9168 107.756L73.9208 107.76L74.2984 107.381L74.2944 107.377Z" fill="black"/>
<path opacity="0.2" d="M69.0408 104.381C68.9607 104.461 68.8656 104.525 68.7609 104.568C68.6563 104.612 68.5441 104.634 68.4308 104.634C68.3175 104.634 68.2053 104.612 68.1007 104.568C67.996 104.525 67.9009 104.461 67.8208 104.381C67.7407 104.301 67.6771 104.205 67.6338 104.1C67.5904 103.995 67.5681 103.883 67.5681 103.769C67.5681 103.655 67.5904 103.543 67.6338 103.438C67.6771 103.333 67.7407 103.238 67.8208 103.157L67.4432 103.536C67.2814 103.698 67.1905 103.918 67.1905 104.148C67.1905 104.377 67.2814 104.597 67.4432 104.76C67.605 104.922 67.8244 105.013 68.0532 105.013C68.282 105.013 68.5014 104.922 68.6632 104.76L69.0408 104.381Z" fill="black"/>
<path opacity="0.2" d="M71.622 104.697L71.2444 105.076L71.3065 105.138L71.6841 104.76L71.622 104.697Z" fill="black"/>
<path opacity="0.2" d="M68.1383 106.738C68.0432 106.643 67.9677 106.53 67.9163 106.405C67.8648 106.281 67.8383 106.147 67.8383 106.012C67.8383 105.877 67.8648 105.744 67.9163 105.619C67.9677 105.495 68.0432 105.381 68.1383 105.286L67.7607 105.665C67.6656 105.76 67.5901 105.873 67.5387 105.998C67.4872 106.123 67.4607 106.256 67.4607 106.391C67.4607 106.526 67.4872 106.659 67.5387 106.784C67.5901 106.909 67.6656 107.022 67.7607 107.117C67.8558 107.213 67.9687 107.288 68.0929 107.34C68.2172 107.391 68.3503 107.418 68.4848 107.418C68.6193 107.418 68.7525 107.391 68.8767 107.34C69.001 107.288 69.1139 107.213 69.209 107.117L69.5866 106.738C69.4915 106.834 69.3786 106.91 69.2543 106.961C69.1301 107.013 68.9969 107.039 68.8624 107.039C68.7279 107.039 68.5948 107.013 68.4705 106.961C68.3463 106.91 68.2334 106.834 68.1383 106.738V106.738Z" fill="black"/>
<path opacity="0.2" d="M74.5288 113.847C74.4337 113.751 74.3583 113.638 74.3068 113.513C74.2553 113.389 74.2288 113.255 74.2288 113.12C74.2288 112.985 74.2553 112.852 74.3068 112.727C74.3583 112.603 74.4337 112.489 74.5288 112.394L74.1512 112.773C74.0561 112.868 73.9807 112.981 73.9292 113.106C73.8777 113.231 73.8512 113.364 73.8512 113.499C73.8512 113.634 73.8777 113.767 73.9292 113.892C73.9807 114.017 74.0561 114.13 74.1512 114.225C74.2463 114.321 74.3592 114.396 74.4835 114.448C74.6077 114.499 74.7409 114.526 74.8754 114.526C75.0099 114.526 75.143 114.499 75.2673 114.448C75.3915 114.396 75.5044 114.321 75.5995 114.225L75.9772 113.847C75.8821 113.942 75.7692 114.018 75.6449 114.069C75.5207 114.121 75.3875 114.147 75.253 114.147C75.1185 114.147 74.9853 114.121 74.8611 114.069C74.7368 114.018 74.6239 113.942 74.5288 113.847Z" fill="black"/>
<path opacity="0.2" d="M83.3635 115.653C83.4289 115.587 83.4657 115.498 83.4657 115.405C83.4657 115.312 83.4289 115.223 83.3635 115.157C83.298 115.092 83.2092 115.055 83.1165 115.055C83.0239 115.055 82.9351 115.092 82.8696 115.157L82.492 115.536C82.5575 115.47 82.6463 115.434 82.7389 115.434C82.8315 115.434 82.9203 115.47 82.9858 115.536C83.0513 115.602 83.0881 115.691 83.0881 115.784C83.0881 115.877 83.0513 115.966 82.9858 116.031L83.3635 115.653Z" fill="black"/>
<path opacity="0.2" d="M75.7799 111.139C75.6404 111.279 75.4573 111.367 75.261 111.388C75.0648 111.409 74.8673 111.362 74.7016 111.254C74.5359 111.147 74.4119 110.986 74.3505 110.797C74.289 110.609 74.2937 110.406 74.3638 110.221L73.9862 110.6C73.9161 110.785 73.9114 110.988 73.9729 111.176C74.0343 111.364 74.1583 111.525 74.324 111.633C74.4897 111.74 74.6871 111.788 74.8834 111.767C75.0796 111.746 75.2628 111.658 75.4023 111.518L75.7799 111.139Z" fill="black"/>
<path opacity="0.2" d="M79.7304 117.024C79.6503 116.944 79.5868 116.848 79.5434 116.743C79.5 116.638 79.4777 116.526 79.4777 116.412C79.4777 116.299 79.5 116.186 79.5434 116.081C79.5868 115.976 79.6503 115.881 79.7304 115.8L81.1372 114.24L80.7596 114.619L79.3528 116.179C79.2727 116.259 79.2092 116.355 79.1658 116.46C79.1224 116.565 79.1001 116.677 79.1001 116.791C79.1001 116.904 79.1224 117.017 79.1658 117.122C79.2092 117.227 79.2727 117.322 79.3528 117.403C79.4329 117.483 79.528 117.547 79.6327 117.59C79.7373 117.634 79.8495 117.656 79.9628 117.656C80.0761 117.656 80.1883 117.634 80.293 117.59C80.3976 117.547 80.4927 117.483 80.5728 117.403L82.0833 115.946L82.4609 115.567L80.9504 117.024C80.8703 117.104 80.7752 117.168 80.6706 117.211C80.5659 117.255 80.4537 117.277 80.3404 117.277C80.2271 117.277 80.115 117.255 80.0103 117.211C79.9056 117.168 79.8105 117.104 79.7304 117.024V117.024Z" fill="black"/>
<path opacity="0.2" d="M83.5067 121.394C83.4244 121.311 83.3597 121.213 83.3164 121.105C83.2731 120.997 83.2522 120.881 83.2548 120.764L83.0648 120.955C82.9697 121.05 82.8568 121.126 82.7326 121.177C82.6083 121.229 82.4752 121.255 82.3407 121.255C82.2062 121.255 82.073 121.229 81.9488 121.177C81.8245 121.126 81.7116 121.05 81.6165 120.955C81.5214 120.859 81.446 120.746 81.3945 120.621C81.343 120.497 81.3165 120.363 81.3165 120.228C81.3165 120.093 81.343 119.96 81.3945 119.835C81.446 119.711 81.5214 119.597 81.6165 119.502L81.7748 119.343C81.6084 119.335 81.4482 119.277 81.3134 119.179C81.1787 119.081 81.0753 118.945 81.0157 118.789C80.9561 118.633 80.943 118.463 80.9778 118.3C81.0126 118.137 81.0939 117.987 81.2119 117.869L82.9547 116.063L82.5771 116.441L80.8342 118.247C80.7163 118.365 80.635 118.515 80.6002 118.679C80.5653 118.842 80.5785 119.012 80.6381 119.168C80.6977 119.324 80.8011 119.46 80.9358 119.558C81.0705 119.656 81.2308 119.713 81.3972 119.722L81.2389 119.881C81.0468 120.073 80.9389 120.335 80.9389 120.607C80.9389 120.879 81.0468 121.141 81.2389 121.333C81.4309 121.526 81.6914 121.634 81.963 121.634C82.2347 121.634 82.4952 121.526 82.6872 121.333L82.8772 121.143C82.8735 121.315 82.9214 121.485 83.0147 121.63C83.108 121.775 83.2425 121.889 83.4009 121.957C83.5592 122.024 83.7341 122.043 83.9031 122.01C84.0721 121.977 84.2274 121.894 84.349 121.772L84.7267 121.394C84.6466 121.474 84.5515 121.538 84.4468 121.581C84.3421 121.625 84.2299 121.647 84.1167 121.647C84.0034 121.647 83.8912 121.625 83.7865 121.581C83.6819 121.538 83.5868 121.474 83.5067 121.394V121.394Z" fill="black"/>
<path opacity="0.2" d="M77.5809 114.868C77.5967 114.738 77.5828 114.606 77.5402 114.482C77.4976 114.358 77.4275 114.246 77.3351 114.153C77.2428 114.061 77.1306 113.99 77.0071 113.948C76.8836 113.905 76.752 113.891 76.6223 113.907C76.4959 113.78 76.412 113.617 76.3824 113.44L76.0047 113.819C76.3243 113.909 76.6096 114.093 76.8233 114.348C77.0371 114.602 77.1695 114.916 77.2033 115.247C77.2834 115.327 77.3785 115.391 77.4831 115.434C77.5878 115.478 77.7 115.5 77.8133 115.5C77.9266 115.5 78.0387 115.478 78.1434 115.434C78.2481 115.391 78.3432 115.327 78.4233 115.247L79.9503 113.807L80.328 113.428L78.8009 114.868C78.7208 114.949 78.6257 115.012 78.521 115.056C78.4164 115.099 78.3042 115.122 78.1909 115.122C78.0776 115.122 77.9654 115.099 77.8607 115.056C77.7561 115.012 77.661 114.949 77.5809 114.868V114.868Z" fill="black"/>
<path opacity="0.2" d="M81.8945 113.48C81.948 113.427 81.9905 113.364 82.0195 113.294C82.0486 113.224 82.0636 113.15 82.0638 113.074C82.0639 112.999 82.0492 112.924 82.0204 112.854C81.9917 112.784 81.9494 112.721 81.8962 112.667C81.8429 112.614 81.7796 112.571 81.71 112.542C81.6403 112.514 81.5657 112.499 81.4904 112.499C81.415 112.499 81.3404 112.514 81.2709 112.543C81.2014 112.572 81.1383 112.615 81.0852 112.669L80.7076 113.047C80.7607 112.994 80.8238 112.951 80.8933 112.922C80.9628 112.893 81.0374 112.878 81.1127 112.878C81.1881 112.878 81.2627 112.892 81.3323 112.921C81.402 112.95 81.4653 112.992 81.5185 113.046C81.5718 113.099 81.614 113.163 81.6428 113.233C81.6716 113.302 81.6863 113.377 81.6861 113.453C81.686 113.528 81.671 113.603 81.6419 113.673C81.6129 113.743 81.5704 113.806 81.5169 113.859L81.8945 113.48Z" fill="black"/>
<path d="M75.0537 106.77L74.9085 106.624L74.1242 107.411L74.2694 107.556L75.0537 106.77Z" fill="#3F3D56"/>
<path d="M78.2199 109.1L78.0747 108.954L77.2904 109.741L77.4356 109.887L78.2199 109.1Z" fill="#3F3D56"/>
<path d="M81.3544 107.386L81.2092 107.24L80.4249 108.026L80.5701 108.172L81.3544 107.386Z" fill="#3F3D56"/>
<path d="M71.6551 108.692L71.5099 108.547L70.7256 109.333L70.8708 109.479L71.6551 108.692Z" fill="#3F3D56"/>
<path d="M78.9582 113.268L78.9214 113.065L77.8302 113.264L77.867 113.467L78.9582 113.268Z" fill="#3F3D56"/>
<path d="M83.5175 111.267L83.4807 111.065L82.3894 111.264L82.4262 111.467L83.5175 111.267Z" fill="#3F3D56"/>
<path d="M72.5063 104.312L72.3022 104.336L72.4306 105.44L72.6347 105.417L72.5063 104.312Z" fill="#3F3D56"/>
<path d="M70.0953 103.525L69.8913 103.549L70.0197 104.654L70.2237 104.63L70.0953 103.525Z" fill="#3F3D56"/>
<path d="M77.4356 105.459L77.2904 105.313L76.5061 106.1L76.6513 106.245L77.4356 105.459Z" fill="white"/>
<path d="M83.4196 109.46L83.2744 109.314L82.4901 110.1L82.6353 110.246L83.4196 109.46Z" fill="white"/>
<path d="M85.6992 115.175L85.554 115.029L84.7697 115.816L84.9149 115.961L85.6992 115.175Z" fill="white"/>
<path d="M69.4184 105.517L69.2732 105.371L68.4889 106.158L68.6341 106.304L69.4184 105.517Z" fill="white"/>
<path d="M79.4467 110.712L79.3821 110.517L78.3293 110.867L78.394 111.063L79.4467 110.712Z" fill="white"/>
<path d="M75.8739 112.955L75.8092 112.76L74.7564 113.11L74.8211 113.306L75.8739 112.955Z" fill="white"/>
<path d="M75.4715 109.354L75.2665 109.367L75.3331 110.477L75.5381 110.465L75.4715 109.354Z" fill="white"/>
<path d="M75.9944 103.062L75.7894 103.074L75.8559 104.185L76.061 104.172L75.9944 103.062Z" fill="white"/>
<path d="M77.1161 107.993L76.9709 107.848L76.1866 108.634L76.3318 108.78L77.1161 107.993Z" fill="#FF6584"/>
<path d="M83.9549 117.709L83.8097 117.564L83.0254 118.35L83.1706 118.496L83.9549 117.709Z" fill="#FF6584"/>
<path d="M85.0948 112.851L84.9495 112.706L84.1652 113.492L84.3105 113.638L85.0948 112.851Z" fill="#FF6584"/>
<path d="M72.9436 106.346L72.7452 106.293L72.4581 107.368L72.6565 107.421L72.9436 106.346Z" fill="#FF6584"/>
<path d="M79.5084 106.055L79.31 106.002L79.0229 107.076L79.2213 107.13L79.5084 106.055Z" fill="#FF6584"/>
<path d="M78.4627 103.433L78.2643 103.38L77.9772 104.454L78.1756 104.508L78.4627 103.433Z" fill="#FF6584"/>
<path d="M72.6427 102.983L72.4975 102.837L71.7132 103.623L71.8584 103.769L72.6427 102.983Z" fill="#FF6584"/>
<path d="M220.946 59.1345C220.946 58.5282 220.705 57.9467 220.278 57.518C219.85 57.0892 219.271 56.8484 218.666 56.8484C218.061 56.8484 217.482 57.0892 217.054 57.518C216.627 57.9467 216.386 58.5282 216.386 59.1345V161.625C216.386 162.232 216.627 162.813 217.054 163.242C217.482 163.671 218.061 163.912 218.666 163.912C219.271 163.912 219.85 163.671 220.278 163.242C220.705 162.813 220.946 162.232 220.946 161.625V59.7985" fill="#3F3D56"/>
<path d="M250.025 64.5737C246.02 56.9993 239.339 51.1978 231.291 48.3063C223.243 45.4148 214.408 45.6418 206.519 48.9428C198.629 52.2438 192.253 58.3807 188.64 66.151C185.027 73.9212 184.438 82.7644 186.988 90.9475H191.242C192.097 90.9475 192.798 91.902 192.798 93.0708H193.579C194.437 93.0708 195.138 94.0253 195.138 95.1941C195.138 96.36 194.437 97.3174 193.579 97.3174H192.798C192.796 97.4949 192.778 97.6719 192.744 97.846H196.306C197.164 97.846 197.865 98.8034 197.865 99.9693C197.865 101.138 197.164 102.093 196.306 102.093H192.904C198.23 108.787 205.855 113.248 214.287 114.602C222.72 115.957 231.353 114.106 238.497 109.414C245.641 104.722 250.782 97.5246 252.914 89.2314C255.046 80.9381 254.016 72.1454 250.025 64.5737ZM226.699 93.0765C224.567 94.2837 222.16 94.9158 219.712 94.9112C219.222 94.911 218.732 94.8862 218.244 94.8369C214.874 94.4837 211.741 92.9338 209.41 90.4669C207.079 88.0001 205.704 84.7789 205.534 81.3848C205.364 77.9907 206.409 74.6473 208.481 71.9582C210.553 69.2692 213.515 67.4115 216.833 66.7207C220.151 66.0299 223.606 66.5513 226.574 68.191C229.542 69.8306 231.828 72.4804 233.019 75.662C234.21 78.8436 234.228 82.3474 233.069 85.5409C231.91 88.7343 229.65 91.407 226.699 93.0765Z" fill="#D78B45"/>
<path opacity="0.2" d="M197.771 99.2553C197.833 99.0223 197.865 98.7821 197.865 98.5409C197.865 97.3733 197.163 96.418 196.306 96.418H194.848C194.739 96.6701 194.563 96.8873 194.339 97.0457C194.115 97.2042 193.852 97.2977 193.579 97.3162H192.799C192.798 97.4945 192.779 97.6722 192.744 97.8469H196.306C196.979 97.8469 197.555 98.437 197.771 99.2553Z" fill="black"/>
<path opacity="0.2" d="M193.579 93.0704C194.252 93.0704 194.827 93.6605 195.044 94.4789C195.106 94.2458 195.137 94.0056 195.137 93.7644C195.137 92.5968 194.436 91.6416 193.579 91.6416H192.799C192.799 90.474 192.098 89.5187 191.241 89.5187H186.988C186.018 86.4014 185.496 83.1613 185.439 79.8963C185.433 80.1505 185.426 80.4043 185.426 80.6598C185.423 84.1487 185.95 87.6177 186.988 90.9476H191.241C192.098 90.9476 192.799 91.9028 192.799 93.0704H193.579Z" fill="black"/>
<path opacity="0.2" d="M219.713 113.617C214.875 113.622 210.09 112.597 205.676 110.611C201.261 108.624 197.317 105.721 194.105 102.093H192.902C197.334 107.668 203.385 111.725 210.216 113.7C217.048 115.675 224.323 115.471 231.034 113.117C237.745 110.763 243.561 106.374 247.675 100.559C251.79 94.7442 254 87.7902 254 80.6598C254 80.4448 253.994 80.2313 253.99 80.0172C253.785 88.9982 250.084 97.5423 243.678 103.821C237.272 110.101 228.671 113.616 219.713 113.617Z" fill="black"/>
<path opacity="0.2" d="M219.712 63.5507C216.338 63.5513 213.04 64.5552 210.235 66.4355C207.429 68.3158 205.243 70.9881 203.952 74.1144C202.662 77.2408 202.324 80.6807 202.983 83.9994C203.641 87.318 205.266 90.3663 207.652 92.7588C210.038 95.1513 213.078 96.7804 216.388 97.4404C219.697 98.1003 223.127 97.7613 226.244 96.4663C229.361 95.1712 232.025 92.9783 233.9 90.1648C235.774 87.3513 236.775 84.0435 236.775 80.6598C236.769 76.1233 234.97 71.7742 231.771 68.5667C228.572 65.3592 224.235 63.5553 219.712 63.5507V63.5507ZM226.699 93.0765C224.567 94.2837 222.16 94.9158 219.712 94.9112C219.222 94.911 218.732 94.8862 218.244 94.8369C214.874 94.4837 211.741 92.9338 209.41 90.4669C207.079 88.0001 205.704 84.7789 205.534 81.3848C205.364 77.9907 206.409 74.6473 208.481 71.9582C210.553 69.2692 213.515 67.4115 216.833 66.7207C220.151 66.0299 223.606 66.5513 226.574 68.191C229.542 69.8307 231.828 72.4804 233.019 75.662C234.21 78.8436 234.228 82.3474 233.069 85.5409C231.91 88.7343 229.65 91.407 226.699 93.0765Z" fill="black"/>
<path d="M250.025 64.0028V69.7228C250.025 70.1404 249.901 70.5486 249.668 70.8947C249.435 71.2408 249.103 71.509 248.717 71.6648C248.331 71.8206 247.907 71.8568 247.5 71.7688C247.093 71.6808 246.721 71.4726 246.433 71.1709V71.8228C246.433 72.4818 246.172 73.1138 245.707 73.5798C245.243 74.0457 244.612 74.3075 243.955 74.3075C243.298 74.3075 242.668 74.0457 242.203 73.5798C241.739 73.1138 241.478 72.4818 241.478 71.8228V71.2796C241.178 71.5499 240.807 71.7274 240.408 71.7903C240.01 71.8533 239.602 71.7991 239.234 71.6344C238.866 71.4696 238.554 71.2013 238.334 70.8621C238.115 70.5228 237.999 70.127 237.999 69.7228L237.9 63.643V62.2407C237.9 62.016 237.811 61.8005 237.653 61.6416C237.494 61.4827 237.279 61.3935 237.055 61.3935C236.831 61.3935 236.616 61.4827 236.458 61.6416C236.3 61.8005 236.211 62.016 236.211 62.2407V63.643L236.111 68.7261C236.111 69.2812 235.891 69.8136 235.5 70.2061C235.108 70.5986 234.578 70.8191 234.024 70.8191C233.471 70.8191 232.94 70.5986 232.548 70.2061C232.157 69.8136 231.937 69.2812 231.937 68.7261L231.682 63.643V61.0446C231.682 60.6764 231.536 60.3233 231.276 60.0629C231.017 59.8025 230.664 59.6563 230.297 59.6563C229.93 59.6563 229.578 59.8025 229.318 60.0629C229.059 60.3233 228.913 60.6764 228.913 61.0446V63.643L228.757 68.7261C228.757 69.1614 228.622 69.5859 228.37 69.9406C228.119 70.2952 227.763 70.5622 227.353 70.7044C226.942 70.8466 226.498 70.8568 226.082 70.7338C225.665 70.6107 225.298 70.3604 225.03 70.0178C224.7 70.4409 224.22 70.7202 223.69 70.7974C223.16 70.8747 222.62 70.7439 222.184 70.4324V71.8228C222.184 72.4818 221.923 73.1138 221.458 73.5797C220.993 74.0457 220.363 74.3075 219.706 74.3075C219.049 74.3075 218.419 74.0457 217.954 73.5797C217.49 73.1138 217.228 72.4818 217.228 71.8228V67.5301C217.229 68.0089 217.065 68.4733 216.765 68.8457C216.465 69.2182 216.047 69.4761 215.58 69.5766C215.113 69.677 214.626 69.6138 214.2 69.3975C213.774 69.1812 213.435 68.825 213.239 68.3882V71.8228C213.239 72.4813 212.977 73.1126 212.513 73.578C212.048 74.0434 211.418 74.3049 210.762 74.3049C210.105 74.3049 209.475 74.0434 209.011 73.578C208.546 73.1126 208.285 72.4813 208.284 71.8228V63.643H208.27V71.8228C208.27 72.4818 208.009 73.1138 207.544 73.5797C207.08 74.0457 206.45 74.3075 205.793 74.3075C205.135 74.3075 204.505 74.0457 204.041 73.5797C203.576 73.1138 203.315 72.4818 203.315 71.8228V68.4171C203.114 68.8484 202.772 69.198 202.346 69.4082C201.92 69.6184 201.436 69.6766 200.972 69.5732C200.509 69.4698 200.095 69.211 199.798 68.8395C199.501 68.468 199.339 68.0061 199.34 67.5301V63.643H199.127V70.6268C199.127 71.2858 198.866 71.9178 198.401 72.3837C197.937 72.8497 197.306 73.1115 196.649 73.1115C195.992 73.1115 195.362 72.8497 194.897 72.3837C194.433 71.9178 194.172 71.2858 194.172 70.6268V67.5301C194.172 68.0852 193.952 68.6175 193.56 69.0101C193.169 69.4026 192.638 69.6231 192.085 69.6231C191.531 69.6231 191 69.4026 190.609 69.0101C190.218 68.6175 189.998 68.0852 189.998 67.5301V62.9224C193.059 57.5969 197.486 53.1913 202.821 50.1639C208.155 47.1365 214.201 45.598 220.329 45.7083C226.457 45.8186 232.444 47.5737 237.666 50.7911C242.889 54.0085 247.156 58.5706 250.025 64.0028Z" fill="#FFF2C2"/>
<path opacity="0.2" d="M205.793 73.1115C205.467 73.1115 205.145 73.0472 204.844 72.9224C204.544 72.7975 204.271 72.6145 204.041 72.3838C203.811 72.153 203.628 71.8791 203.504 71.5776C203.379 71.2762 203.315 70.953 203.315 70.6267V71.9224C203.315 72.5814 203.576 73.2134 204.041 73.6794C204.505 74.1454 205.135 74.4072 205.793 74.4072C206.45 74.4072 207.08 74.1454 207.545 73.6794C208.009 73.2134 208.27 72.5814 208.27 71.9224V70.6267C208.27 70.953 208.206 71.2762 208.082 71.5776C207.957 71.8791 207.775 72.153 207.545 72.3838C207.314 72.6145 207.041 72.7975 206.741 72.9224C206.44 73.0472 206.118 73.1115 205.793 73.1115V73.1115Z" fill="black"/>
<path opacity="0.2" d="M210.762 73.1115C210.436 73.1115 210.114 73.0472 209.814 72.9224C209.513 72.7975 209.24 72.6145 209.01 72.3838C208.78 72.153 208.597 71.8791 208.473 71.5776C208.348 71.2762 208.284 70.953 208.284 70.6267V71.9224C208.284 72.5814 208.545 73.2134 209.01 73.6794C209.474 74.1454 210.105 74.4072 210.762 74.4072C211.419 74.4072 212.049 74.1454 212.514 73.6794C212.978 73.2134 213.239 72.5814 213.239 71.9224V70.6267C213.239 70.953 213.175 71.2762 213.051 71.5776C212.926 71.8791 212.744 72.153 212.514 72.3838C212.284 72.6145 212.01 72.7975 211.71 72.9224C211.409 73.0472 211.087 73.1115 210.762 73.1115Z" fill="black"/>
<path opacity="0.2" d="M203.315 67.2211C203.114 67.6523 202.772 68.0019 202.346 68.2121C201.92 68.4223 201.436 68.4805 200.972 68.3771C200.509 68.2737 200.095 68.0149 199.798 67.6435C199.501 67.272 199.339 66.8101 199.34 66.334V67.6297C199.339 68.1058 199.501 68.5677 199.798 68.9392C200.095 69.3106 200.509 69.5694 200.972 69.6728C201.436 69.7762 201.92 69.718 202.346 69.5078C202.772 69.2976 203.114 68.948 203.315 68.5168V67.2211Z" fill="black"/>
<path opacity="0.2" d="M208.284 62.447H208.27V63.7427H208.284V62.447Z" fill="black"/>
<path opacity="0.2" d="M194.172 66.334C194.172 66.8891 193.952 67.4215 193.561 67.814C193.169 68.2065 192.638 68.427 192.085 68.427C191.531 68.427 191 68.2065 190.609 67.814C190.218 67.4215 189.998 66.8891 189.998 66.334V67.6297C189.998 68.1848 190.218 68.7172 190.609 69.1097C191 69.5022 191.531 69.7227 192.085 69.7227C192.638 69.7227 193.169 69.5022 193.561 69.1097C193.952 68.7172 194.172 68.1848 194.172 67.6297V66.334Z" fill="black"/>
<path opacity="0.2" d="M199.34 62.447H199.127V63.7427H199.34V62.447Z" fill="black"/>
<path opacity="0.2" d="M196.649 71.9155C196.324 71.9155 196.002 71.8512 195.701 71.7264C195.401 71.6015 195.127 71.4185 194.897 71.1878C194.667 70.957 194.485 70.6831 194.36 70.3816C194.236 70.0801 194.172 69.757 194.172 69.4307V70.7264C194.172 71.3854 194.433 72.0174 194.897 72.4834C195.362 72.9494 195.992 73.2111 196.649 73.2111C197.306 73.2111 197.937 72.9494 198.401 72.4834C198.866 72.0174 199.127 71.3854 199.127 70.7264V69.4307C199.127 69.757 199.063 70.0802 198.938 70.3816C198.814 70.6831 198.631 70.957 198.401 71.1878C198.171 71.4185 197.898 71.6015 197.598 71.7264C197.297 71.8512 196.975 71.9155 196.649 71.9155V71.9155Z" fill="black"/>
<path opacity="0.2" d="M219.706 73.1115C219.381 73.1115 219.059 73.0472 218.758 72.9224C218.457 72.7975 218.184 72.6145 217.954 72.3838C217.724 72.153 217.542 71.8791 217.417 71.5776C217.293 71.2762 217.228 70.953 217.228 70.6267V71.9224C217.228 72.5814 217.49 73.2134 217.954 73.6794C218.419 74.1454 219.049 74.4072 219.706 74.4072C220.363 74.4072 220.993 74.1454 221.458 73.6794C221.923 73.2134 222.184 72.5814 222.184 71.9224V70.6267C222.184 70.953 222.12 71.2762 221.995 71.5776C221.871 71.8791 221.688 72.153 221.458 72.3838C221.228 72.6145 220.955 72.7975 220.654 72.9224C220.354 73.0472 220.031 73.1115 219.706 73.1115Z" fill="black"/>
<path opacity="0.2" d="M237.9 61.0446C237.9 60.8199 237.811 60.6045 237.653 60.4456C237.494 60.2867 237.279 60.1974 237.055 60.1974C236.831 60.1974 236.616 60.2867 236.458 60.4456C236.3 60.6045 236.211 60.8199 236.211 61.0446V62.3403C236.211 62.1156 236.3 61.9002 236.458 61.7413C236.616 61.5824 236.831 61.4931 237.055 61.4931C237.279 61.4931 237.494 61.5824 237.653 61.7413C237.811 61.9002 237.9 62.1156 237.9 62.3403V61.0446Z" fill="black"/>
<path opacity="0.2" d="M217.228 66.334C217.229 66.8128 217.065 67.2772 216.765 67.6497C216.465 68.0221 216.047 68.2801 215.58 68.3805C215.113 68.4809 214.626 68.4177 214.2 68.2015C213.774 67.9852 213.435 67.6289 213.239 67.1922V68.4878C213.435 68.9246 213.774 69.2809 214.2 69.4971C214.626 69.7134 215.113 69.7766 215.58 69.6762C216.047 69.5758 216.465 69.3178 216.765 68.9454C217.065 68.5729 217.229 68.1085 217.228 67.6297V66.334Z" fill="black"/>
<path opacity="0.2" d="M234.024 69.6231C233.75 69.6231 233.479 69.569 233.225 69.4638C232.972 69.3587 232.742 69.2045 232.548 69.0101C232.355 68.8158 232.201 68.585 232.096 68.3311C231.991 68.0771 231.937 67.8049 231.937 67.5301L231.682 62.447V63.7427L231.937 68.8258C231.937 69.3809 232.157 69.9132 232.548 70.3057C232.94 70.6983 233.471 70.9188 234.024 70.9188C234.578 70.9188 235.108 70.6983 235.5 70.3057C235.891 69.9132 236.111 69.3809 236.111 68.8258L236.211 63.7427V62.447L236.111 67.5301C236.111 67.8049 236.057 68.0771 235.952 68.3311C235.847 68.585 235.694 68.8158 235.5 69.0101C235.306 69.2045 235.076 69.3587 234.823 69.4638C234.57 69.569 234.298 69.6231 234.024 69.6231V69.6231Z" fill="black"/>
<path opacity="0.2" d="M247.938 70.6198C247.656 70.6199 247.378 70.5628 247.119 70.4519C246.861 70.3411 246.627 70.1788 246.433 69.9749V70.6268C246.433 71.2858 246.172 71.9177 245.707 72.3837C245.243 72.8497 244.613 73.1115 243.955 73.1115C243.298 73.1115 242.668 72.8497 242.203 72.3837C241.739 71.9177 241.478 71.2858 241.478 70.6268V70.0836C241.178 70.3539 240.807 70.5313 240.409 70.5943C240.01 70.6573 239.602 70.6031 239.234 70.4383C238.866 70.2736 238.554 70.0053 238.334 69.666C238.115 69.3268 237.999 68.931 237.999 68.5267L237.9 62.447V63.7427L237.999 69.8224C237.999 70.2267 238.115 70.6224 238.334 70.9617C238.554 71.301 238.866 71.5693 239.234 71.734C239.602 71.8988 240.01 71.9529 240.409 71.89C240.807 71.827 241.178 71.6496 241.478 71.3792V71.9224C241.478 72.5814 241.739 73.2134 242.203 73.6794C242.668 74.1454 243.298 74.4072 243.955 74.4072C244.613 74.4072 245.243 74.1454 245.707 73.6794C246.172 73.2134 246.433 72.5814 246.433 71.9224V71.2706C246.721 71.5722 247.093 71.7805 247.5 71.8685C247.907 71.9565 248.331 71.9203 248.717 71.7645C249.103 71.6087 249.435 71.3405 249.668 70.9944C249.901 70.6482 250.025 70.2401 250.025 69.8224V68.5267C250.025 68.8016 249.971 69.0738 249.866 69.3277C249.761 69.5817 249.607 69.8124 249.413 70.0068C249.22 70.2012 248.99 70.3553 248.736 70.4605C248.483 70.5657 248.212 70.6198 247.938 70.6198V70.6198Z" fill="black"/>
<path opacity="0.2" d="M226.67 69.6231C226.354 69.6231 226.042 69.551 225.758 69.4121C225.474 69.2733 225.225 69.0714 225.03 68.8218C224.7 69.2449 224.22 69.5242 223.69 69.6014C223.16 69.6786 222.62 69.5479 222.184 69.2364V70.5321C222.62 70.8436 223.16 70.9743 223.69 70.8971C224.22 70.8199 224.7 70.5406 225.03 70.1174C225.298 70.4601 225.665 70.7104 226.082 70.8334C226.498 70.9565 226.942 70.9462 227.353 70.8041C227.763 70.6619 228.119 70.3949 228.37 70.0402C228.622 69.6856 228.757 69.2611 228.757 68.8258L228.913 63.7427V62.447L228.757 67.5301C228.757 67.8049 228.703 68.0771 228.598 68.3311C228.493 68.585 228.339 68.8158 228.146 69.0101C227.952 69.2045 227.722 69.3587 227.469 69.4638C227.215 69.569 226.944 69.6231 226.67 69.6231V69.6231Z" fill="black"/>
<path opacity="0.2" d="M231.682 59.8486C231.682 59.4804 231.536 59.1272 231.276 58.8669C231.017 58.6065 230.664 58.4602 230.297 58.4602C229.93 58.4602 229.578 58.6065 229.318 58.8669C229.059 59.1272 228.913 59.4804 228.913 59.8486V61.1443C228.913 60.7761 229.059 60.4229 229.318 60.1626C229.578 59.9022 229.93 59.7559 230.297 59.7559C230.664 59.7559 231.017 59.9022 231.276 60.1626C231.536 60.4229 231.682 60.7761 231.682 61.1443V59.8486Z" fill="black"/>
<path d="M208.533 60.1048H208.036V62.7958H208.533V60.1048Z" fill="#3F3D56"/>
<path d="M217.924 58.6596H217.427V61.3506H217.924V58.6596Z" fill="#3F3D56"/>
<path d="M244.161 60.2543H243.664V62.9453H244.161V60.2543Z" fill="#3F3D56"/>
<path d="M205.998 69.2244H205.501V71.9155H205.998V69.2244Z" fill="#3F3D56"/>
<path d="M226.296 64.5221L225.887 64.2386L224.36 66.4516L224.769 66.7351L226.296 64.5221Z" fill="#3F3D56"/>
<path d="M199.982 60.2705L199.674 60.6613L201.778 62.3311L202.086 61.9403L199.982 60.2705Z" fill="#3F3D56"/>
<path d="M229.201 50.204L228.892 50.5948L230.997 52.2646L231.305 51.8738L229.201 50.204Z" fill="#3F3D56"/>
<path d="M194.516 63.0622L194.207 63.453L196.312 65.1228L196.62 64.732L194.516 63.0622Z" fill="#3F3D56"/>
<path d="M210.371 53.7758H209.874V56.4669H210.371V53.7758Z" fill="white"/>
<path d="M196.756 67.6297H196.259V70.3208H196.756V67.6297Z" fill="white"/>
<path d="M220.011 49.8888H219.514V52.5798H220.011V49.8888Z" fill="white"/>
<path d="M243.863 66.7327H243.366V69.4238H243.863V66.7327Z" fill="white"/>
<path d="M222.773 59.3129L222.329 59.0894L221.125 61.4947L221.57 61.7182L222.773 59.3129Z" fill="white"/>
<path d="M220.487 69.2797L220.043 69.0562L218.84 71.4615L219.284 71.685L220.487 69.2797Z" fill="white"/>
<path d="M247.917 64.7946L247.473 64.5712L246.269 66.9764L246.713 67.1999L247.917 64.7946Z" fill="white"/>
<path d="M213.656 63.8098L213.327 64.1826L215.335 65.9679L215.664 65.595L213.656 63.8098Z" fill="white"/>
<path d="M203.818 52.1486L203.488 52.5215L205.496 54.3067L205.825 53.9338L203.818 52.1486Z" fill="white"/>
<path d="M236.514 56.6336L236.185 57.0065L238.193 58.7918L238.522 58.4189L236.514 56.6336Z" fill="white"/>
<path d="M224.489 47.8628L224.159 48.2357L226.167 50.021L226.497 49.6481L224.489 47.8628Z" fill="white"/>
<path d="M214.148 58.6596H213.651V61.3506H214.148V58.6596Z" fill="#FF6584"/>
<path d="M242.181 60.359L241.724 60.1642L240.675 62.6413L241.133 62.836L242.181 60.359Z" fill="#FF6584"/>
<path d="M204.201 63.001L203.771 63.2502L205.112 65.5807L205.543 65.3315L204.201 63.001Z" fill="#FF6584"/>
<path d="M232.624 61.1073L232.194 61.3565L233.536 63.687L233.966 63.4378L232.624 61.1073Z" fill="#FF6584"/>
<path d="M214.934 51.2401L214.504 51.4893L215.846 53.8198L216.276 53.5706L214.934 51.2401Z" fill="#FF6584"/>
<path d="M236.003 50.7418L235.573 50.991L236.915 53.3215L237.345 53.0723L236.003 50.7418Z" fill="#FF6584"/>
<path d="M208.673 48.5491L208.243 48.7983L209.585 51.1288L210.015 50.8796L208.673 48.5491Z" fill="#FF6584"/>
<path d="M226.57 53.2775H226.074V55.9685H226.57V53.2775Z" fill="#FF6584"/>
<path d="M197.948 57.7626H197.451V60.4536H197.948V57.7626Z" fill="#FF6584"/>
<path d="M100.946 156.085C107.558 156.085 112.918 150.71 112.918 144.079C112.918 137.449 107.558 132.073 100.946 132.073C94.3345 132.073 88.9747 137.449 88.9747 144.079C88.9747 150.71 94.3345 156.085 100.946 156.085Z" fill="#2F2E41"/>
<path d="M105.57 159.456L109.149 158.807L107.988 152.376L104.409 153.026L105.57 159.456Z" fill="#2F2E41"/>
<path d="M98.4125 160.756L101.991 160.106L100.83 153.676L97.2517 154.325L98.4125 160.756Z" fill="#2F2E41"/>
<path d="M100.312 162.109C101.59 161.024 102.296 159.755 101.891 159.275C101.485 158.795 100.121 159.285 98.8432 160.369C97.5659 161.454 96.8593 162.723 97.2649 163.204C97.6706 163.684 99.0349 163.194 100.312 162.109Z" fill="#2F2E41"/>
<path d="M107.321 160.837C108.598 159.752 109.305 158.483 108.899 158.003C108.493 157.522 107.129 158.012 105.852 159.097C104.574 160.182 103.868 161.451 104.273 161.931C104.679 162.412 106.043 161.922 107.321 160.837Z" fill="#2F2E41"/>
<path d="M100.108 145.246C102.368 145.246 104.2 143.409 104.2 141.143C104.2 138.876 102.368 137.039 100.108 137.039C97.8484 137.039 96.0166 138.876 96.0166 141.143C96.0166 143.409 97.8484 145.246 100.108 145.246Z" fill="white"/>
<path d="M98.4265 141.039C99.1797 141.039 99.7903 140.427 99.7903 139.672C99.7903 138.916 99.1797 138.304 98.4265 138.304C97.6732 138.304 97.0626 138.916 97.0626 139.672C97.0626 140.427 97.6732 141.039 98.4265 141.039Z" fill="#3F3D56"/>
<path d="M110.39 131.018C110.57 126.573 106.75 122.809 101.858 122.609C96.9664 122.41 92.8547 125.852 92.6747 130.296C92.4947 134.741 95.8952 135.751 100.787 135.95C105.679 136.15 110.21 135.463 110.39 131.018Z" fill="#55291B"/>
<path d="M95.7266 143.233C95.9585 142.219 93.5343 140.796 90.312 140.055C87.0897 139.314 84.2896 139.536 84.0578 140.551C83.8259 141.565 86.2501 142.988 89.4723 143.729C92.6946 144.47 95.4947 144.248 95.7266 143.233Z" fill="#2F2E41"/>
<path d="M119.226 147.152C119.458 146.138 117.034 144.715 113.812 143.974C110.589 143.234 107.789 143.455 107.557 144.47C107.325 145.484 109.75 146.907 112.972 147.648C116.194 148.389 118.994 148.167 119.226 147.152Z" fill="#2F2E41"/>
<path d="M104.234 148.811C104.298 149.164 104.292 149.527 104.216 149.878C104.141 150.229 103.996 150.562 103.792 150.858C103.588 151.153 103.328 151.405 103.027 151.6C102.725 151.794 102.389 151.927 102.036 151.991C101.684 152.055 101.322 152.049 100.972 151.973C100.622 151.897 100.29 151.752 99.9954 151.547C99.701 151.342 99.4497 151.081 99.2559 150.779C99.0621 150.477 98.9297 150.139 98.866 149.785C98.5977 148.299 99.7438 147.773 101.226 147.503C102.709 147.234 103.966 147.324 104.234 148.811Z" fill="white"/>
<path d="M168.991 102.427C170.201 99.2527 170.376 96.3704 169.382 95.9895C168.388 95.6086 166.602 97.8733 165.392 101.048C164.182 104.222 164.007 107.105 165.001 107.486C165.994 107.867 167.781 105.602 168.991 102.427Z" fill="#2F2E41"/>
<path d="M160.043 158.703C166.82 158.703 172.315 153.193 172.315 146.396C172.315 139.599 166.82 134.088 160.043 134.088C153.265 134.088 147.771 139.599 147.771 146.396C147.771 153.193 153.265 158.703 160.043 158.703Z" fill="#2F2E41"/>
<path d="M158.178 156.055H154.45V162.754H158.178V156.055Z" fill="#2F2E41"/>
<path d="M165.635 156.055H161.907V162.754H165.635V156.055Z" fill="#2F2E41"/>
<path d="M157.557 164C159.273 164 160.664 163.477 160.664 162.832C160.664 162.186 159.273 161.663 157.557 161.663C155.841 161.663 154.45 162.186 154.45 162.832C154.45 163.477 155.841 164 157.557 164Z" fill="#2F2E41"/>
<path d="M165.014 163.844C166.729 163.844 168.12 163.321 168.12 162.676C168.12 162.03 166.729 161.507 165.014 161.507C163.298 161.507 161.907 162.03 161.907 162.676C161.907 163.321 163.298 163.844 165.014 163.844Z" fill="#2F2E41"/>
<path d="M160.353 147.486C162.67 147.486 164.548 145.603 164.548 143.28C164.548 140.957 162.67 139.074 160.353 139.074C158.037 139.074 156.159 140.957 156.159 143.28C156.159 145.603 158.037 147.486 160.353 147.486Z" fill="white"/>
<path d="M160.353 144.682C161.125 144.682 161.751 144.054 161.751 143.28C161.751 142.506 161.125 141.878 160.353 141.878C159.581 141.878 158.955 142.506 158.955 143.28C158.955 144.054 159.581 144.682 160.353 144.682Z" fill="#3F3D56"/>
<path d="M148.138 134.95C147.147 130.5 150.315 126.003 155.213 124.906C160.112 123.809 164.886 126.528 165.877 130.978C166.867 135.429 163.621 137.07 158.723 138.167C153.825 139.264 149.129 139.401 148.138 134.95Z" fill="#55291B"/>
<path d="M155.848 123.339C162.626 123.339 168.12 117.829 168.12 111.031C168.12 104.234 162.626 98.7241 155.848 98.7241C149.071 98.7241 143.576 104.234 143.576 111.031C143.576 117.829 149.071 123.339 155.848 123.339Z" fill="#2F2E41"/>
<path d="M153.984 120.69H150.256V127.389H153.984V120.69Z" fill="#2F2E41"/>
<path d="M161.441 120.69H157.712V127.389H161.441V120.69Z" fill="#2F2E41"/>
<path d="M153.363 128.636C155.079 128.636 156.47 128.113 156.47 127.467C156.47 126.822 155.079 126.299 153.363 126.299C151.647 126.299 150.256 126.822 150.256 127.467C150.256 128.113 151.647 128.636 153.363 128.636Z" fill="#2F2E41"/>
<path d="M160.819 128.48C162.535 128.48 163.926 127.957 163.926 127.312C163.926 126.666 162.535 126.143 160.819 126.143C159.103 126.143 157.712 126.666 157.712 127.312C157.712 127.957 159.103 128.48 160.819 128.48Z" fill="#2F2E41"/>
<path d="M156.159 112.122C158.475 112.122 160.353 110.239 160.353 107.916C160.353 105.593 158.475 103.709 156.159 103.709C153.843 103.709 151.965 105.593 151.965 107.916C151.965 110.239 153.843 112.122 156.159 112.122Z" fill="white"/>
<path d="M156.159 109.318C156.931 109.318 157.557 108.69 157.557 107.916C157.557 107.141 156.931 106.514 156.159 106.514C155.387 106.514 154.761 107.141 154.761 107.916C154.761 108.69 155.387 109.318 156.159 109.318Z" fill="#3F3D56"/>
<path d="M143.944 99.586C142.953 95.1354 146.121 90.6384 151.019 89.5415C155.917 88.4446 160.691 91.1632 161.682 95.6138C162.673 100.064 159.427 101.706 154.529 102.803C149.63 103.9 144.935 104.037 143.944 99.586Z" fill="#55291B"/>
<path d="M147.57 107.958C148.026 106.994 145.913 105.032 142.851 103.575C139.789 102.119 136.938 101.72 136.482 102.684C136.026 103.648 138.139 105.61 141.2 107.066C144.262 108.523 147.114 108.922 147.57 107.958Z" fill="#2F2E41"/>
<path d="M149.82 115.471C149.82 116.676 152.913 119.055 156.345 119.055C159.776 119.055 162.994 115.663 162.994 114.459C162.994 113.254 159.776 114.693 156.345 114.693C152.913 114.693 149.82 114.267 149.82 115.471Z" fill="white"/>
<path d="M191.686 127.937C192.63 127.937 193.396 127.169 193.396 126.222C193.396 125.275 192.63 124.507 191.686 124.507C190.742 124.507 189.976 125.275 189.976 126.222C189.976 127.169 190.742 127.937 191.686 127.937Z" fill="#D78B45"/>
<path d="M196.343 114.095C197.287 114.095 198.052 113.327 198.052 112.38C198.052 111.433 197.287 110.666 196.343 110.666C195.398 110.666 194.633 111.433 194.633 112.38C194.633 113.327 195.398 114.095 196.343 114.095Z" fill="#D78B45"/>
<path d="M192.085 107.02C193.029 107.02 193.794 106.252 193.794 105.305C193.794 104.358 193.029 103.59 192.085 103.59C191.141 103.59 190.375 104.358 190.375 105.305C190.375 106.252 191.141 107.02 192.085 107.02Z" fill="#D78B45"/>
<path d="M177.326 153.304L178.246 156.64L184.206 154.987L183.287 151.651L177.326 153.304Z" fill="#2F2E41"/>
<path d="M177.739 157.228C178.313 157.069 178.435 155.696 178.012 154.16C177.589 152.625 176.78 151.509 176.206 151.668C175.632 151.827 175.51 153.201 175.933 154.736C176.356 156.272 177.165 157.388 177.739 157.228Z" fill="#2F2E41"/>
<path d="M196.141 141.829C196.562 138.711 196.113 136.076 195.137 135.943C194.161 135.811 193.028 138.231 192.607 141.349C192.185 144.466 192.635 147.102 193.611 147.234C194.587 147.367 195.72 144.947 196.141 141.829Z" fill="#2F2E41"/>
<path d="M193.262 163.648C199.536 163.648 204.623 158.547 204.623 152.254C204.623 145.962 199.536 140.86 193.262 140.86C186.987 140.86 181.9 145.962 181.9 152.254C181.9 158.547 186.987 163.648 193.262 163.648Z" fill="#2F2E41"/>
<path d="M177.326 151.284L178.246 154.621L184.206 152.968L183.287 149.632L177.326 151.284Z" fill="#2F2E41"/>
<path d="M177.738 155.211C178.313 155.052 178.435 153.678 178.012 152.142C177.588 150.607 176.78 149.491 176.206 149.65C175.632 149.81 175.509 151.183 175.932 152.719C176.356 154.254 177.164 155.37 177.738 155.211Z" fill="#2F2E41"/>
<path d="M196.245 149.621C198.389 149.621 200.128 147.878 200.128 145.727C200.128 143.576 198.389 141.833 196.245 141.833C194.1 141.833 192.362 143.576 192.362 145.727C192.362 147.878 194.1 149.621 196.245 149.621Z" fill="white"/>
<path d="M197.487 145.305C198.201 145.305 198.781 144.724 198.781 144.007C198.781 143.29 198.201 142.709 197.487 142.709C196.772 142.709 196.192 143.29 196.192 144.007C196.192 144.724 196.772 145.305 197.487 145.305Z" fill="#3F3D56"/>
<path d="M206.382 160.084C210.586 159.873 213.806 155.929 213.574 151.275C213.341 146.621 209.745 143.02 205.541 143.231C201.336 143.442 200.677 146.751 200.909 151.405C201.141 156.059 202.177 160.295 206.382 160.084Z" fill="#55291B"/>
<path d="M188.618 147.433C187.934 147.489 187.256 147.27 186.733 146.824C186.21 146.378 185.885 145.741 185.829 145.055C185.774 144.369 185.993 143.689 186.437 143.164C186.882 142.64 187.516 142.314 188.201 142.258C189.626 142.142 190.014 143.277 190.13 144.706C190.245 146.135 190.043 147.318 188.618 147.433Z" fill="white"/>
<path d="M191.877 144.536C192.298 141.419 191.848 138.784 190.872 138.651C189.896 138.518 188.764 140.938 188.342 144.056C187.921 147.174 188.37 149.809 189.346 149.942C190.322 150.074 191.455 147.654 191.877 144.536Z" fill="#2F2E41"/>
<path d="M190.831 139.082C191.775 139.082 192.541 138.314 192.541 137.367C192.541 136.42 191.775 135.653 190.831 135.653C189.887 135.653 189.121 136.42 189.121 137.367C189.121 138.314 189.887 139.082 190.831 139.082Z" fill="#D78B45"/>
<path d="M180.868 97.9253C180.907 97.6237 180.882 97.3173 180.793 97.0265C180.704 96.7357 180.554 96.4673 180.354 96.2395C180.153 96.0116 179.906 95.8295 179.629 95.7053C179.352 95.5812 179.052 95.518 178.749 95.5199H178.072C178.235 95.2121 178.321 94.8686 178.321 94.5197C178.32 93.9518 178.094 93.4076 177.693 93.006C177.293 92.6044 176.75 92.3781 176.184 92.3764H169.06C168.494 92.3764 167.95 92.6022 167.549 93.0042C167.148 93.4061 166.923 93.9513 166.923 94.5197C166.923 95.0881 167.148 95.6333 167.549 96.0352C167.95 96.4372 168.494 96.663 169.06 96.663H169.737C169.573 96.9707 169.488 97.3143 169.488 97.6632C169.489 98.1089 169.629 98.5431 169.887 98.9057C170.146 99.2683 170.51 99.5414 170.93 99.6872C170.891 99.9888 170.917 100.295 171.005 100.586C171.094 100.877 171.244 101.145 171.445 101.373C171.646 101.601 171.893 101.783 172.169 101.907C172.446 102.031 172.746 102.095 173.05 102.093H180.173C180.679 102.093 181.168 101.914 181.554 101.586C181.94 101.258 182.198 100.804 182.281 100.304C182.365 99.804 182.268 99.2904 182.01 98.8548C181.751 98.4192 181.346 98.0898 180.868 97.9253Z" fill="#D78B45"/>
<path d="M85.276 113.411L85.1215 113.256L84.2869 114.093L84.4415 114.248L85.276 113.411Z" fill="#3F3D56"/>
</g>
<defs>
<clipPath id="clip0">
<rect width="254" height="164" fill="white"/>
</clipPath>
</defs>
</svg>
