<svg width="211" height="203" viewBox="0 0 211 203" fill="none" xmlns="http://www.w3.org/2000/svg">
<path d="M72.0002 137.82C71.2724 137.82 70.5371 137.809 69.8154 137.786L69.8318 137.263C70.8681 137.295 71.9256 137.304 72.9667 137.29L72.9739 137.814C72.6498 137.818 72.3253 137.82 72.0002 137.82ZM76.1306 137.699L76.0999 137.176C77.1377 137.115 78.1888 137.029 79.224 136.921L79.2788 137.442C78.2357 137.551 77.1766 137.638 76.1306 137.699V137.699ZM66.6616 137.617C65.615 137.537 64.5575 137.432 63.5182 137.305L63.5822 136.785C64.6136 136.911 65.663 137.015 66.7015 137.095L66.6616 137.617ZM82.4117 137.041L82.333 136.523C83.3642 136.367 84.4033 136.185 85.4206 135.984L85.5228 136.497C84.4975 136.701 83.4508 136.884 82.4117 137.041V137.041ZM60.3929 136.849C59.3591 136.674 58.3155 136.473 57.2913 136.251L57.4026 135.739C58.419 135.959 59.4545 136.159 60.4805 136.333L60.3929 136.849ZM88.6062 135.811L88.4802 135.303C89.4924 135.053 90.5102 134.776 91.5054 134.482L91.6545 134.984C90.6516 135.281 89.6261 135.56 88.6062 135.811V135.811ZM54.2208 135.511C53.2067 135.241 52.1862 134.945 51.1876 134.63L51.3456 134.13C52.3367 134.443 53.3494 134.737 54.3555 135.004L54.2208 135.511ZM94.6614 134.017L94.4892 133.522C95.4714 133.181 96.4592 132.812 97.4258 132.426L97.6205 132.913C96.6468 133.302 95.6513 133.673 94.6614 134.017H94.6614ZM48.1905 133.607C47.2056 133.245 46.2145 132.855 45.2451 132.447L45.4488 131.964C46.4108 132.369 47.3941 132.756 48.3716 133.115L48.1905 133.607ZM100.519 131.676L100.302 131.199C101.245 130.771 102.193 130.314 103.12 129.841L103.359 130.308C102.425 130.784 101.469 131.245 100.519 131.676H100.519ZM106.132 128.81L105.873 128.355C106.777 127.84 107.68 127.298 108.556 126.744L108.836 127.187C107.954 127.745 107.044 128.291 106.132 128.81H106.132ZM111.464 125.441L111.164 125.012C112.015 124.417 112.865 123.795 113.69 123.162L114.01 123.577C113.179 124.215 112.322 124.842 111.464 125.441ZM31.4985 124.703C30.6517 124.089 29.8058 123.445 28.984 122.79L29.3114 122.381C30.1269 123.031 30.9664 123.67 31.8067 124.279L31.4985 124.703ZM116.468 121.6L116.13 121.199C116.924 120.53 117.714 119.832 118.479 119.126L118.835 119.511C118.065 120.223 117.269 120.925 116.468 121.6H116.468ZM26.5601 120.765C25.7714 120.075 24.9879 119.358 24.2313 118.632L24.5946 118.254C25.3455 118.974 26.123 119.686 26.9056 120.371L26.5601 120.765ZM121.105 117.316L120.731 116.948C121.463 116.208 122.187 115.441 122.882 114.67L123.272 115.021C122.571 115.798 121.842 116.57 121.105 117.316ZM22.0028 116.396C21.2792 115.636 20.5646 114.851 19.8788 114.062L20.2751 113.718C20.9556 114.502 21.6648 115.281 22.383 116.035L22.0028 116.396ZM125.333 112.629L124.928 112.296C125.589 111.492 126.24 110.663 126.864 109.831L127.284 110.144C126.656 110.983 126 111.819 125.333 112.629L125.333 112.629ZM17.8638 111.634C17.214 110.814 16.5741 109.967 15.962 109.117L16.3878 108.811C16.9953 109.654 17.6302 110.495 18.2752 111.309L17.8638 111.634ZM129.119 107.573L128.685 107.279C129.27 106.418 129.843 105.533 130.388 104.646L130.835 104.921C130.285 105.814 129.708 106.706 129.119 107.573L129.119 107.573ZM14.1777 106.517C13.606 105.642 13.0465 104.741 12.5146 103.84L12.9665 103.574C13.4945 104.468 14.0497 105.362 14.6171 106.231L14.1777 106.517ZM132.428 102.191L131.969 101.938C132.472 101.028 132.962 100.093 133.424 99.159L133.894 99.3913C133.429 100.332 132.935 101.274 132.428 102.191V102.191ZM135.23 96.5263L134.749 96.316C135.167 95.3623 135.569 94.3857 135.942 93.4133L136.432 93.6011C136.056 94.5811 135.651 95.5652 135.23 96.5263V96.5263ZM8.28689 95.3956C7.88468 94.4315 7.49951 93.4451 7.14213 92.4635L7.63529 92.2844C7.98984 93.2585 8.37207 94.2373 8.77107 95.194L8.28689 95.3956ZM137.499 90.6227L137.001 90.458C137.328 89.4726 137.637 88.4655 137.919 87.4642L138.424 87.606C138.14 88.6149 137.828 89.63 137.499 90.6227ZM6.13149 89.4744C5.81933 88.4757 5.526 87.4555 5.2597 86.4417L5.7672 86.3087C6.03145 87.3148 6.3226 88.3273 6.63233 89.3183L6.13149 89.4744ZM139.209 84.5498L138.697 84.4311C138.932 83.4211 139.147 82.3897 139.336 81.366L139.852 81.4606C139.662 82.4926 139.445 83.5317 139.209 84.5498V84.5498ZM4.52907 83.3723C4.31029 82.3488 4.11226 81.3061 3.94062 80.2726L4.45811 80.1866C4.6286 81.2124 4.82509 82.2472 5.04221 83.2628L4.52907 83.3723ZM140.352 78.3459L139.832 78.2747C139.973 77.2484 140.092 76.2019 140.186 75.1641L140.709 75.2111C140.614 76.2572 140.494 77.3116 140.352 78.3459V78.3459ZM3.49512 77.1494C3.37138 76.1121 3.2698 75.0556 3.19308 74.0093L3.71646 73.9709C3.79242 75.0095 3.89336 76.0578 4.0162 77.0875L3.49512 77.1494ZM140.922 72.0639L140.398 72.0403C140.445 71.002 140.469 69.9488 140.469 68.9102H140.993C140.993 69.9568 140.97 71.0179 140.922 72.0639ZM3.03412 70.8582C3.01618 70.2157 3.00709 69.5601 3.00696 68.9102C3.00696 68.507 3.01042 68.1045 3.01733 67.7027L3.542 67.712C3.53508 68.1106 3.53162 68.51 3.53162 68.9102C3.53175 69.5553 3.54084 70.206 3.55852 70.8439L3.03412 70.8582ZM3.6665 64.5835L3.14287 64.5508C3.20832 63.5037 3.29875 62.4462 3.41134 61.4075L3.93293 61.4639C3.82111 62.4948 3.73157 63.5443 3.66649 64.5835H3.6665ZM140.13 61.3865C140.025 60.3534 139.881 59.8497 139.729 58.8211L140.248 58.7446C140.401 59.781 140.533 60.5721 140.638 61.613L140.13 61.3865ZM4.34141 58.3599L3.82289 58.2798C3.98365 57.2431 4.17041 56.1982 4.37804 55.1738L4.89221 55.2777C4.68623 56.2943 4.50088 57.3312 4.34141 58.3599ZM139.199 55.7356C138.999 54.7134 138.774 53.6844 138.528 52.6772L139.038 52.5534C139.285 53.5682 139.513 54.6051 139.714 55.635L139.199 55.7356ZM5.58415 52.2242L5.07525 52.0968C5.33002 51.0819 5.61221 50.0585 5.91399 49.055L6.41635 49.2057C6.11702 50.2015 5.83701 51.2171 5.58415 52.2242ZM137.717 49.6529C137.424 48.6552 137.104 47.6515 136.766 46.6694L137.262 46.499C137.603 47.4886 137.925 48.5002 138.22 49.5055L137.717 49.6529ZM7.39024 46.2205L6.8953 46.0468C7.24397 45.0561 7.62043 44.0608 8.01418 43.0883L8.50067 43.2848C8.10986 44.2497 7.73622 45.2376 7.39024 46.2205V46.2205ZM135.679 43.7328C135.296 42.7684 134.886 41.8005 134.461 40.8559L134.939 40.6408C135.368 41.5926 135.781 42.5679 136.167 43.5396L135.679 43.7328ZM9.74508 40.4045L9.26832 40.1857C9.70653 39.2325 10.1729 38.2767 10.6545 37.3448L11.1208 37.5851C10.6427 38.51 10.18 39.4585 9.74508 40.4045ZM133.111 38.037C132.642 37.1119 132.144 36.1848 131.633 35.282L132.089 35.0238C132.605 35.9337 133.106 36.8678 133.579 37.8L133.111 38.037ZM12.6247 34.8326L12.17 34.5712C12.6934 33.6634 13.2453 32.7548 13.8106 31.8708L14.2528 32.1528C13.6918 33.0301 13.144 33.9318 12.6247 34.8326V34.8326ZM130.029 32.5963C129.475 31.7148 128.894 30.8366 128.304 29.9861L128.735 29.6875C129.33 30.5446 129.915 31.4294 130.473 32.3177L130.029 32.5963ZM16.0017 29.5507L15.5729 29.2488C16.1777 28.392 16.8101 27.538 17.4529 26.7105L17.8674 27.0317C17.2296 27.853 16.6018 28.7005 16.0017 29.5507ZM126.46 27.4567C125.828 26.6295 125.169 25.8073 124.503 25.0128L124.905 24.6762C125.577 25.4768 126.24 26.3052 126.877 27.1386L126.46 27.4567ZM19.8457 24.601L19.4464 24.2612C20.1251 23.4649 20.8326 22.6723 21.549 21.9055L21.9325 22.2629C21.2216 23.024 20.5195 23.8107 19.8457 24.601ZM122.436 22.6599C121.731 21.8937 121 21.1343 120.263 20.403L120.633 20.0312C121.375 20.7682 122.112 21.5333 122.822 22.3053L122.436 22.6599ZM24.123 20.023L23.7561 19.6484C24.5064 18.9153 25.2827 18.1905 26.0634 17.4943L26.4129 17.8853C25.638 18.5761 24.8676 19.2954 24.123 20.023ZM117.99 18.2466C117.218 17.5469 116.42 16.8568 115.62 16.1955L115.954 15.7917C116.76 16.458 117.564 17.1533 118.342 17.8584L117.99 18.2466ZM28.7973 15.8539L28.4661 15.4476C29.2775 14.7875 30.1161 14.1366 30.9587 13.5128L31.2713 13.9337C30.435 14.5529 29.6026 15.1988 28.7973 15.8539ZM33.8294 12.1287L33.5366 11.694C34.405 11.1103 35.2991 10.5388 36.1941 9.99498L36.4667 10.4428C35.5786 10.9824 34.6913 11.5497 33.8294 12.1287ZM39.1777 8.87936L38.9259 8.41956C39.8447 7.9174 40.7868 7.43021 41.726 6.9713L41.9565 7.44211C41.0245 7.89745 40.0896 8.38092 39.1777 8.87936ZM102.497 7.66524C101.563 7.20068 100.607 6.75189 99.6544 6.33136L99.8665 5.85211C100.826 6.27583 101.79 6.72809 102.731 7.19622L102.497 7.66524ZM44.7973 6.13395L44.5888 5.65315C45.549 5.23748 46.5312 4.83883 47.508 4.4682L47.6943 4.95819C46.7249 5.3259 45.7502 5.72148 44.7973 6.13395ZM96.7526 5.12925C95.7811 4.753 94.7869 4.39399 93.7972 4.06238L93.9643 3.56547C94.9613 3.89977 95.9633 4.26145 96.9422 4.64078L96.7526 5.12925ZM50.6496 3.91436L50.4862 3.41643C51.4832 3.08993 52.5005 2.7825 53.5096 2.50296L53.6499 3.0078C52.6485 3.28529 51.639 3.5903 50.6496 3.91436ZM90.803 3.13522C89.8023 2.85031 88.7817 2.58496 87.7695 2.34662L87.8899 1.83666C88.9101 2.07679 89.9384 2.34418 90.947 2.63115L90.803 3.13522ZM56.689 2.2403L56.5722 1.72945C57.5943 1.49621 58.6356 1.28371 59.6669 1.09794L59.7601 1.61353C58.7365 1.79802 57.7034 2.00886 56.689 2.2403ZM84.7028 1.69874C83.6811 1.50722 82.6405 1.3368 81.6096 1.19224L81.6824 0.673321C82.7212 0.819042 83.77 0.990733 84.7996 1.18366L84.7028 1.69874ZM62.857 1.12853L62.7876 0.609101C63.8261 0.470673 64.8824 0.354249 65.9268 0.263415L65.9724 0.785399C64.9359 0.875718 63.8879 0.991118 62.857 1.12853ZM78.4962 0.827874C77.4628 0.730642 76.4109 0.655672 75.3695 0.605391L75.3951 0.0818825C76.4442 0.132674 77.504 0.208159 78.5454 0.306169L78.4962 0.827874ZM69.1009 0.584409L69.0789 0.0609003C70.0432 0.020728 71.0259 0.000256776 72.0002 0L72.2376 0.000385312L72.2361 0.524418L72.0002 0.524032C71.0333 0.524273 70.0578 0.544616 69.1009 0.584403V0.584409Z" fill="#3F3D56"/>
<path d="M156.413 24.6835V194.522C156.411 196.546 155.605 198.485 154.172 199.915C152.739 201.345 150.797 202.149 148.771 202.15H79.7385C78.735 202.151 77.7409 201.955 76.8133 201.573C75.8857 201.19 75.0428 200.628 74.333 199.92C73.6231 199.211 73.0601 198.37 72.6764 197.444C72.2927 196.518 72.0957 195.525 72.0968 194.522V24.6835C72.0967 23.6812 72.2943 22.6886 72.6783 21.7626C73.0623 20.8365 73.6252 19.9951 74.3348 19.2863C75.0444 18.5775 75.8869 18.0153 76.8141 17.6318C77.7412 17.2482 78.735 17.0509 79.7385 17.051H90.0691V18.3741C90.0689 20.0408 90.7316 21.6394 91.9113 22.8182C93.091 23.9969 94.6912 24.6594 96.3599 24.6599H131.47C132.813 24.6628 134.122 24.2327 135.201 23.4337C135.419 23.2752 135.626 23.1019 135.82 22.9149C136.434 22.3288 136.923 21.6241 137.257 20.8435C137.591 20.063 137.762 19.2229 137.761 18.3741V17.051H148.771C149.775 17.0507 150.769 17.2479 151.696 17.6313C152.623 18.0148 153.466 18.577 154.175 19.2858C154.885 19.9946 155.448 20.8361 155.832 21.7623C156.216 22.6885 156.413 23.6811 156.413 24.6835V24.6835Z" fill="#3E3B68"/>
<path d="M146.32 78.2763H82.1894V127.011H146.32V78.2763Z" fill="#392D22"/>
<path d="M48.4188 70.0649C54.1286 70.1872 58.6708 74.32 58.6708 74.32C58.6708 74.32 53.9554 78.2545 48.2455 78.1322C42.5356 78.0099 37.9935 73.877 37.9935 73.877C37.9935 73.877 42.7089 69.9425 48.4188 70.0649Z" fill="#392D22"/>
<path d="M19.7125 50.5976C24.8711 53.0454 30.7864 51.3855 30.7864 51.3855C30.7864 51.3855 28.3379 45.7569 23.1793 43.3091C18.0207 40.8613 12.1054 42.5212 12.1054 42.5212C12.1054 42.5212 14.5539 48.1498 19.7125 50.5976Z" fill="#392D22"/>
<path d="M20.2369 48.1651C25.9244 47.646 30.9026 51.2429 30.9026 51.2429C30.9026 51.2429 26.6597 55.6816 20.9722 56.2008C15.2847 56.7199 10.3065 53.1229 10.3065 53.1229C10.3065 53.1229 14.5495 48.6842 20.2369 48.1651Z" fill="#392D22"/>
<path d="M41.0854 49.1486C40.5403 54.8269 44.1193 59.8151 44.1193 59.8151C44.1193 59.8151 48.5823 55.5971 49.1274 49.9188C49.6725 44.2406 46.0935 39.2523 46.0935 39.2523C46.0935 39.2523 41.6305 43.4703 41.0854 49.1486Z" fill="#392D22"/>
<path d="M67.8706 83.9732C64.8875 88.8375 65.9138 94.8882 65.9138 94.8882C65.9138 94.8882 71.7767 93.0523 74.7598 88.1879C77.7429 83.3236 76.7166 77.2729 76.7166 77.2729C76.7166 77.2729 70.8537 79.1089 67.8706 83.9732Z" fill="#3F3D56"/>
<path d="M59.2162 136.861L59.6509 136.567C58.1186 134.346 57.2819 131.72 57.2472 129.023C57.2594 125.078 59.1996 121.429 61.076 117.9C61.4243 117.245 61.7714 116.592 62.1053 115.939C63.507 113.278 64.6241 110.477 65.438 107.583C68.3485 96.7799 65.483 84.0345 57.7729 73.4887C51.6565 65.1229 42.5388 57.8074 29.8991 51.1242L29.6537 51.5873C42.2214 58.2324 51.2807 65.4976 57.3491 73.7978C64.9665 84.2165 67.8009 96.7956 64.9313 107.447C64.1269 110.306 63.0231 113.072 61.6383 115.701C61.3054 116.351 60.9595 117.001 60.6125 117.654C58.7063 121.239 56.7351 124.947 56.7225 129.022C56.7572 131.824 57.6252 134.552 59.2162 136.861V136.861Z" fill="#3F3D56"/>
<path d="M4.9843 51.8128C7.73705 51.8128 9.9686 49.5839 9.9686 46.8344C9.9686 44.085 7.73705 41.8561 4.9843 41.8561C2.23155 41.8561 0 44.085 0 46.8344C0 49.5839 2.23155 51.8128 4.9843 51.8128Z" fill="#392D22"/>
<path d="M75.1479 127.644L43.8599 125.04V79.2059L75.1479 77.6435V127.644Z" fill="#392D22"/>
<path d="M153.362 127.644L184.65 125.04V79.2059L153.362 77.6435V127.644Z" fill="#392D22"/>
<path d="M125.13 96.5685C124.2 95.7654 123.052 95.2544 121.832 95.0994C120.612 94.9445 119.373 95.1525 118.271 95.6975C117.313 96.1601 116.283 96.4544 115.226 96.5676C115.199 94.2799 115.62 92.009 116.463 89.882L116.602 89.5253H114.763L114.71 89.7181C114.505 90.4703 114.344 91.2335 114.227 92.0042C114.127 91.6702 113.998 91.3455 113.842 91.0341C112.552 88.4798 109.572 87.4351 109.445 87.3919L109.191 87.305L109.11 87.5607C109.07 87.6879 108.139 90.7025 109.429 93.2569C110.353 95.0857 112.142 96.1404 113.131 96.608C111.88 96.5275 110.657 96.2007 109.532 95.6465C108.831 95.2857 108.043 95.1294 107.257 95.1957C106.471 95.2619 105.719 95.548 105.089 96.0211C101.655 98.6271 99.6861 102.447 99.6861 106.502C99.6861 111.828 103.14 116.706 108.484 118.928C108.966 119.128 109.483 119.23 110.005 119.23C110.73 119.23 111.442 119.035 112.065 118.666C112.893 118.184 113.834 117.93 114.793 117.928C115.751 117.926 116.693 118.177 117.524 118.655C118.061 118.971 118.664 119.158 119.286 119.202C119.908 119.246 120.531 119.145 121.107 118.907C126.421 116.675 129.854 111.806 129.854 106.502C129.854 102.705 128.176 99.1772 125.13 96.5685ZM115.164 90.0493H115.839C115.08 92.0809 114.693 94.2324 114.697 96.4009H114.576C114.414 94.2658 114.612 92.1185 115.164 90.0493V90.0493ZM109.898 93.021C108.918 91.0818 109.348 88.7705 109.538 87.9906C110.278 88.3009 112.392 89.3273 113.373 91.27C114.352 93.2089 113.923 95.5198 113.733 96.3001C112.992 95.9887 110.877 94.9597 109.898 93.021V93.021ZM120.904 118.424C120.403 118.63 119.861 118.718 119.321 118.68C118.78 118.641 118.256 118.478 117.79 118.203C116.878 117.677 115.844 117.402 114.792 117.404C113.739 117.406 112.706 117.686 111.797 118.215C111.332 118.492 110.808 118.656 110.269 118.696C109.729 118.736 109.187 118.65 108.686 118.445C103.537 116.304 100.211 111.616 100.211 106.502C100.211 102.612 102.104 98.9443 105.406 96.4384C106.04 95.9605 106.812 95.7029 107.606 95.7048C108.192 95.7044 108.77 95.8441 109.292 96.1122C110.729 96.7971 112.299 97.1571 113.892 97.1666C115.484 97.176 117.059 96.8347 118.504 96.1668C119.514 95.6676 120.649 95.4773 121.767 95.6195C122.885 95.7617 123.936 96.2303 124.789 96.9664C127.717 99.4739 129.33 102.86 129.33 106.502C129.33 111.595 126.022 116.274 120.904 118.424V118.424Z" fill="white"/>
<path d="M59.4182 91.6166V91.0014H59.663V89.0851C59.6639 88.943 59.6257 88.8034 59.5526 88.6815C59.4795 88.5597 59.3742 88.4602 59.2483 88.3941C58.1656 87.8299 57.002 87.8305 55.7899 88.3968C55.6561 88.4602 55.5431 88.5603 55.464 88.6855C55.385 88.8106 55.3431 88.9555 55.3433 89.1035V91.0014H55.5881V91.5584C54.6871 91.8106 53.8939 92.351 53.33 93.0968C52.7661 93.8426 52.4627 94.7526 52.4664 95.6872V99.8339L52.9327 99.9892L52.4664 100.3V101.546L52.9327 101.701L52.4664 102.011V103.258L52.9327 103.413L52.4664 103.723V113.214C52.4672 113.955 52.762 114.664 53.2861 115.188C53.8102 115.711 54.5208 116.006 55.262 116.007H59.3833C60.1229 116.006 60.8319 115.712 61.3548 115.19C61.8777 114.667 62.1718 113.959 62.1727 113.221V103.723L61.7064 103.413L62.1727 103.258V102.012L61.7064 101.701L62.1727 101.546V100.3L61.7064 99.9892L62.1727 99.8339V95.473C62.1696 94.6245 61.9029 93.7979 61.4096 93.1072C60.9162 92.4165 60.2204 91.8956 59.4182 91.6166V91.6166ZM56.012 88.8714C57.0835 88.3716 58.0629 88.3674 59.0055 88.8588C59.046 88.881 59.0798 88.9138 59.1032 88.9536C59.1266 88.9935 59.1387 89.0389 59.1383 89.0851V90.1106H55.868V89.1035C55.8676 89.0552 55.8809 89.0077 55.9063 88.9667C55.9318 88.9256 55.9685 88.8926 56.012 88.8714V88.8714ZM61.648 99.4562L60.5228 99.8308L61.648 100.58V101.168L60.5228 101.543L61.648 102.292V102.88L60.5228 103.254L61.648 104.004V113.221C61.6473 113.82 61.4085 114.395 60.9839 114.819C60.5594 115.243 59.9838 115.482 59.3833 115.483H55.262C54.6599 115.482 54.0827 115.243 53.6569 114.817C53.2312 114.392 52.9917 113.816 52.9911 113.214V104.004L54.1162 103.254L52.9911 102.88V102.292L54.1162 101.543L52.9911 101.168V100.58L54.1162 99.8308L52.9911 99.4562V95.6872C52.9877 94.8352 53.275 94.0076 53.8055 93.3404C54.3359 92.6733 55.0781 92.2064 55.9096 92.0168L56.1128 91.9698V91.0015H58.8935V92.005L59.0827 92.0599C59.8212 92.2771 60.4698 92.7266 60.932 93.3416C61.3942 93.9565 61.6453 94.7041 61.648 95.473V99.4562Z" fill="white"/>
<path d="M182.731 98.7926L181.41 98.5289L181.721 97.9077L181.115 97.7865L181.22 97.1573L180.558 97.047V96.4502L180.022 96.297L180.531 95.6611H179.647L179.832 95.2005L179.178 95.0918L179.4 94.3152H178.692V93.5905H178.43C177.604 93.5905 177.143 94.5711 176.991 94.9637C172.429 95.7584 159.181 104.923 157.669 105.977C157.041 105.774 156.109 106.251 155.915 106.357L155.607 106.525L156.051 106.968L155.919 107.365L156.734 107.67L156.555 108.116L157.069 108.543L156.608 108.889L157.302 109.305L157.18 109.913L157.955 110.024V110.632L158.405 110.722L158.181 111.508H158.68V112.129H159.168L159.389 112.791L159.616 112.745C160.144 112.64 160.596 111.911 160.773 111.587C165.167 110.804 178.733 101.271 180.054 100.337C181.595 100.522 182.161 100.11 182.222 100.062L182.473 99.8614L181.874 99.3631L182.731 98.7926ZM180.02 99.8047L179.918 99.791L179.833 99.8508C179.683 99.9571 164.806 110.485 160.564 111.09L160.428 111.109L160.367 111.232C160.204 111.563 159.984 111.863 159.718 112.118L159.546 111.605H159.205V110.984H158.876L159.066 110.32L158.48 110.203V109.569L157.803 109.473L157.889 109.045L157.546 108.84L157.914 108.565L157.184 107.957L157.42 107.367L156.577 107.051L156.652 106.827L156.489 106.664C156.883 106.5 157.359 106.379 157.564 106.501L157.71 106.589L157.85 106.491C157.999 106.387 172.775 96.0635 177.222 95.458L177.388 95.4354L177.437 95.2755C177.514 95.0278 177.785 94.402 178.168 94.1879V94.8392H178.705L178.512 95.5121L179.102 95.6104L178.872 96.1851H179.439L179.119 96.5846L180.034 96.8455V97.491L180.616 97.588L180.514 98.201L180.945 98.2869L180.634 98.9081L181.386 99.0585L180.998 99.3163L181.555 99.7799C181.049 99.8826 180.529 99.891 180.02 99.8047V99.8047Z" fill="white"/>
<path d="M114.255 149.283C118.456 149.283 121.862 145.881 121.862 141.684C121.862 137.488 118.456 134.086 114.255 134.086C110.053 134.086 106.647 137.488 106.647 141.684C106.647 145.881 110.053 149.283 114.255 149.283Z" fill="#6BCA6F"/>
<path d="M119.045 140.934H115.006V136.9H113.503V140.934H109.465V142.435H113.503V146.468H115.006V142.435H119.045V140.934Z" fill="white"/>
<path d="M138.249 141.946L134.314 140.112V141.16H125.132V142.732H134.314V143.78L138.249 141.946Z" fill="white"/>
<path d="M90.2608 141.946L94.1958 140.112V141.16H103.377V142.732H94.1958V143.78L90.2608 141.946Z" fill="white"/>
<path d="M210.399 202.21H18.1103V202.734H210.399V202.21Z" fill="#3F3D56"/>
<path d="M139.439 41.856H89.071V42.3801H139.439V41.856Z" fill="white"/>
<path d="M139.56 184.917H89.1928V185.441H139.56V184.917Z" fill="white"/>
</svg>
