<svg width="202" height="179" viewBox="0 0 202 179" fill="none" xmlns="http://www.w3.org/2000/svg">
<path d="M0 26.9129V154.136C0 154.719 0.114875 155.296 0.338072 155.835C0.561269 156.374 0.888418 156.864 1.30083 157.276C1.71325 157.688 2.20285 158.016 2.7417 158.239C3.28054 158.462 3.85808 158.577 4.44132 158.577H187.011C188.188 158.577 189.318 158.109 190.151 157.276C190.984 156.443 191.452 155.313 191.452 154.136V26.9129H0Z" fill="white"/>
<path opacity="0.1" d="M58.4255 38.3013H17.6414C16.2654 38.3013 15.15 39.4167 15.15 40.7927V62.6738C15.15 64.0498 16.2654 65.1652 17.6414 65.1652H58.4255C59.8014 65.1652 60.9169 64.0498 60.9169 62.6738V40.7927C60.9169 39.4167 59.8014 38.3013 58.4255 38.3013Z" fill="black"/>
<path opacity="0.1" d="M116.119 38.3013H75.3353C73.9594 38.3013 72.8439 39.4167 72.8439 40.7927V62.6738C72.8439 64.0498 73.9594 65.1652 75.3353 65.1652H116.119C117.495 65.1652 118.611 64.0498 118.611 62.6738V40.7927C118.611 39.4167 117.495 38.3013 116.119 38.3013Z" fill="black"/>
<path d="M57.7803 38.6786H18.2837C16.9077 38.6786 15.7923 39.7941 15.7923 41.17V62.2936C15.7923 63.6696 16.9077 64.785 18.2837 64.785H57.7803C59.1563 64.785 60.2717 63.6696 60.2717 62.2936V41.17C60.2717 39.7941 59.1563 38.6786 57.7803 38.6786Z" fill="#392D22"/>
<path opacity="0.1" d="M133.671 64.785H173.168C174.544 64.785 175.659 63.6696 175.659 62.2937V41.17C175.659 39.7941 174.544 38.6786 173.168 38.6786H133.671C132.296 38.6786 131.18 39.7941 131.18 41.17V62.2937C131.18 63.6696 132.296 64.785 133.671 64.785Z" fill="#444053"/>
<path d="M75.9776 64.785H115.474C116.85 64.785 117.966 63.6696 117.966 62.2937V41.17C117.966 39.7941 116.85 38.6786 115.474 38.6786H75.9776C74.6017 38.6786 73.4862 39.7941 73.4862 41.17V62.2937C73.4862 63.6696 74.6017 64.785 75.9776 64.785Z" fill="#392D22"/>
<path opacity="0.1" d="M57.7803 76.3895H18.2837C16.9077 76.3895 15.7923 77.5049 15.7923 78.8809V100.004C15.7923 101.38 16.9077 102.496 18.2837 102.496H57.7803C59.1563 102.496 60.2717 101.38 60.2717 100.004V78.8809C60.2717 77.5049 59.1563 76.3895 57.7803 76.3895Z" fill="#444053"/>
<path opacity="0.1" d="M133.671 102.496H173.168C174.544 102.496 175.659 101.38 175.659 100.005V78.8809C175.659 77.5049 174.544 76.3895 173.168 76.3895H133.671C132.296 76.3895 131.18 77.5049 131.18 78.8809V100.005C131.18 101.38 132.296 102.496 133.671 102.496Z" fill="#444053"/>
<path opacity="0.1" d="M75.9776 102.496H115.474C116.85 102.496 117.966 101.38 117.966 100.005V78.8809C117.966 77.5049 116.85 76.3895 115.474 76.3895H75.9776C74.6017 76.3895 73.4862 77.5049 73.4862 78.8809V100.005C73.4862 101.38 74.6017 102.496 75.9776 102.496Z" fill="#444053"/>
<path opacity="0.1" d="M57.7803 114.1H18.2837C16.9077 114.1 15.7923 115.216 15.7923 116.592V137.715C15.7923 139.091 16.9077 140.207 18.2837 140.207H57.7803C59.1563 140.207 60.2717 139.091 60.2717 137.715V116.592C60.2717 115.216 59.1563 114.1 57.7803 114.1Z" fill="#444053"/>
<path opacity="0.1" d="M133.671 140.21H173.168C174.544 140.21 175.659 139.094 175.659 137.718V116.595C175.659 115.219 174.544 114.103 173.168 114.103H133.671C132.296 114.103 131.18 115.219 131.18 116.595V137.718C131.18 139.094 132.296 140.21 133.671 140.21Z" fill="#444053"/>
<path opacity="0.1" d="M75.9776 140.21H115.474C116.85 140.21 117.966 139.094 117.966 137.718V116.595C117.966 115.219 116.85 114.103 115.474 114.103H75.9776C74.6017 114.103 73.4862 115.219 73.4862 116.595V137.718C73.4862 139.094 74.6017 140.21 75.9776 140.21Z" fill="#444053"/>
<path d="M9.34031e-07 4.4442V27.558H191.452V4.4442C191.452 3.86071 191.338 3.28287 191.115 2.7437C190.892 2.20452 190.564 1.71457 190.152 1.30185C189.74 0.889133 189.25 0.56173 188.711 0.338353C188.172 0.114976 187.594 -1.22696e-07 187.011 0H4.44132C3.85784 -1.22696e-07 3.28007 0.114976 2.74104 0.338353C2.202 0.56173 1.71227 0.889133 1.29981 1.30185C0.887362 1.71457 0.560274 2.20452 0.337247 2.7437C0.114219 3.28287 -0.000377461 3.86071 9.34031e-07 4.4442V4.4442ZM47.3798 11.2819C46.6786 11.2819 45.993 11.0739 45.41 10.6843C44.8269 10.2947 44.3725 9.741 44.1041 9.09313C43.8358 8.44526 43.7656 7.73237 43.9024 7.0446C44.0392 6.35683 44.3769 5.72506 44.8727 5.22921C45.3686 4.73335 46.0003 4.39567 46.6881 4.25887C47.3759 4.12206 48.0888 4.19227 48.7366 4.46063C49.3845 4.72898 49.9382 5.18343 50.3278 5.76649C50.7174 6.34956 50.9254 7.03505 50.9254 7.7363C50.9254 8.67664 50.5518 9.57847 49.8869 10.2434C49.222 10.9083 48.3201 11.2819 47.3798 11.2819V11.2819ZM144.072 11.2819C143.371 11.2819 142.685 11.0739 142.102 10.6843C141.519 10.2947 141.065 9.741 140.796 9.09313C140.528 8.44526 140.458 7.73237 140.595 7.0446C140.731 6.35683 141.069 5.72506 141.565 5.22921C142.061 4.73335 142.693 4.39567 143.38 4.25887C144.068 4.12206 144.781 4.19227 145.429 4.46063C146.077 4.72898 146.63 5.18343 147.02 5.76649C147.41 6.34956 147.618 7.03505 147.618 7.7363C147.618 8.2024 147.526 8.66392 147.347 9.09447C147.169 9.52501 146.907 9.91612 146.577 10.2454C146.247 10.5747 145.856 10.8358 145.425 11.0136C144.994 11.1915 144.532 11.2826 144.066 11.2819H144.072Z" fill="#392D22"/>
<path opacity="0.1" d="M47.3798 3.54558C46.5508 3.54501 45.7403 3.79031 45.0507 4.25044C44.3612 4.71058 43.8236 5.36489 43.506 6.13059C43.1884 6.8963 43.105 7.73901 43.2663 8.55212C43.4277 9.36523 43.8266 10.1122 44.4126 10.6986C44.9985 11.285 45.7453 11.6844 46.5583 11.8463C47.3713 12.0082 48.214 11.9254 48.98 11.6083C49.7459 11.2912 50.4006 10.7541 50.8612 10.0649C51.3218 9.37563 51.5676 8.56528 51.5676 7.73631C51.568 7.18611 51.46 6.64123 51.2497 6.13281C51.0394 5.62438 50.731 5.16237 50.3421 4.77319C49.9531 4.38401 49.4913 4.07527 48.9831 3.86463C48.4748 3.65399 47.93 3.54558 47.3798 3.54558V3.54558ZM47.3798 11.2819C46.6785 11.2819 45.993 11.0739 45.41 10.6843C44.8269 10.2948 44.3725 9.74101 44.1041 9.09314C43.8357 8.44527 43.7655 7.73238 43.9023 7.04461C44.0391 6.35684 44.3768 5.72508 44.8727 5.22922C45.3685 4.73336 46.0003 4.39568 46.6881 4.25888C47.3758 4.12207 48.0887 4.19228 48.7366 4.46064C49.3845 4.72899 49.9382 5.18344 50.3278 5.7665C50.7174 6.34957 50.9253 7.03507 50.9253 7.73631C50.9253 8.67665 50.5518 9.57848 49.8869 10.2434C49.222 10.9083 48.3201 11.2819 47.3798 11.2819V11.2819Z" fill="black"/>
<path opacity="0.1" d="M144.066 3.54558C143.237 3.54558 142.427 3.79136 141.738 4.25184C141.049 4.71233 140.512 5.36683 140.194 6.13259C139.877 6.89834 139.794 7.74096 139.956 8.55389C140.118 9.36681 140.517 10.1135 141.103 10.6996C141.689 11.2857 142.436 11.6848 143.249 11.8465C144.062 12.0082 144.904 11.9252 145.67 11.608C146.436 11.2909 147.09 10.7537 147.551 10.0646C148.011 9.37539 148.257 8.56516 148.257 7.73631C148.257 6.62486 147.815 5.55893 147.03 4.77302C146.244 3.9871 145.178 3.54558 144.066 3.54558ZM144.066 11.2819C143.365 11.2819 142.679 11.0739 142.096 10.6843C141.513 10.2947 141.059 9.74101 140.791 9.09314C140.522 8.44527 140.452 7.73238 140.589 7.04461C140.726 6.35684 141.063 5.72507 141.559 5.22922C142.055 4.73336 142.687 4.39568 143.375 4.25888C144.062 4.12207 144.775 4.19228 145.423 4.46064C146.071 4.72899 146.625 5.18344 147.014 5.7665C147.404 6.34957 147.612 7.03506 147.612 7.73631C147.612 8.67665 147.238 9.57848 146.573 10.2434C145.908 10.9083 145.007 11.2819 144.066 11.2819Z" fill="black"/>
<path d="M199.796 164.913C199.14 164.42 198.421 164.016 197.659 163.712C197.601 163.682 197.537 163.666 197.471 163.663C195.893 162.531 194.419 161.26 193.065 159.867C193.353 159.637 193.618 159.412 193.9 159.19C192.172 158.367 191.213 156.48 190.28 154.778C187.812 150.253 184.561 146.202 180.677 142.813C180.582 142.448 180.026 142.525 179.729 142.289C179.633 142.196 179.562 142.079 179.525 141.95C179.488 141.821 179.486 141.685 179.519 141.555C179.565 141.29 179.686 141.045 179.752 140.786C179.911 140.178 179.772 139.539 179.703 138.914C179.634 138.289 179.663 137.592 180.078 137.125C180.21 136.972 180.38 136.854 180.51 136.699C180.646 136.515 180.742 136.306 180.792 136.083C180.841 135.86 180.843 135.629 180.798 135.405C180.767 134.957 180.669 134.515 180.51 134.095C181.921 130.255 183.331 126.408 184.741 122.554C185.729 119.864 186.725 117.116 186.826 114.247C186.907 111.943 186.313 109.55 184.919 107.79C185.173 107.729 185.426 107.666 185.677 107.594C184.029 105.411 183.851 102.519 183.808 99.7683C183.785 98.3973 183.738 97.0254 183.667 95.6525C184.145 95.8627 184.629 96.0499 185.124 96.2112L185.585 96.3524C186.333 96.5714 187.096 96.7351 187.869 96.842C188.209 96.891 188.554 96.9284 188.897 96.9514C188.402 95.711 187.907 94.4687 187.414 93.2244C187.157 92.6738 187.001 92.0817 186.953 91.4761V91.4761V91.3609C186.953 91.2918 186.953 91.2227 186.967 91.1535C186.987 90.9886 187.025 90.8264 187.08 90.6697C187.105 90.5922 187.135 90.5163 187.169 90.4421C187.272 90.2152 187.395 89.9982 187.538 89.7941C187.641 89.6357 187.756 89.483 187.872 89.3275C188.301 88.8266 188.65 88.2621 188.906 87.6541C189.007 87.3463 189.06 87.0247 189.064 86.7007C189.07 86.3722 189.041 86.0439 188.978 85.7214C188.937 85.5083 188.886 85.2923 188.828 85.0849C188.79 84.9553 188.75 84.8257 188.71 84.699L188.675 84.5953C188.644 84.4973 188.612 84.4023 188.577 84.3072L188.543 84.2093C188.505 84.1056 188.468 84.0048 188.428 83.9011L188.405 83.8406C187.854 82.4265 187.123 81.0785 186.676 79.624C186.559 79.2368 186.463 78.8436 186.388 78.446C186.368 78.3452 186.354 78.2415 186.337 78.1407C186.319 78.0399 186.311 77.9678 186.299 77.8814C186.288 77.795 186.273 77.6798 186.262 77.579L186.236 77.291C186.236 77.1988 186.221 77.1067 186.216 77.003C186.216 76.8273 186.198 76.6516 186.195 76.4759C186.195 76.4125 186.195 76.352 186.195 76.2887C186.195 76.1562 186.195 76.0208 186.195 75.8883C186.195 75.8163 186.195 75.7443 186.195 75.6752C186.195 75.5427 186.216 75.4102 186.227 75.2806C186.227 75.2172 186.227 75.1539 186.247 75.0934C186.266 74.9014 186.292 74.7093 186.325 74.5173C186.354 74.3474 186.385 74.1746 186.42 74.0018C186.524 73.5288 186.578 73.046 186.581 72.5617C186.581 72.4695 186.581 72.3744 186.561 72.2736C186.541 72.1728 186.538 72.1181 186.524 72.0432C186.522 72.0202 186.522 71.9971 186.524 71.9741C186.524 71.9222 186.498 71.8704 186.486 71.8186C186.475 71.7667 186.472 71.7696 186.463 71.7466C186.455 71.7235 186.432 71.6457 186.414 71.5968C186.397 71.5478 186.4 71.5536 186.391 71.5305C186.383 71.5075 186.351 71.4268 186.328 71.3779L186.308 71.326C186.279 71.2627 186.247 71.2022 186.216 71.1417C186.104 70.9315 185.975 70.7311 185.83 70.5426V70.5426C184.882 69.2984 183.307 68.3508 182.44 66.9798C181.933 66.0912 181.604 65.1132 181.469 64.0995C181.426 63.8691 181.388 63.6387 181.348 63.4112C181.308 63.1836 181.273 62.959 181.233 62.7343C181.207 62.5961 181.181 62.4463 181.152 62.3196L181.135 62.2303C181.112 62.1208 181.089 62.0085 181.063 61.899L181.046 61.8213C181.02 61.7061 180.994 61.5909 180.965 61.4756L180.948 61.4152C180.919 61.2942 180.887 61.1732 180.855 61.0523C180.854 61.0379 180.854 61.0234 180.855 61.0091C180.821 60.8823 180.783 60.7556 180.746 60.6289V60.6029C180.706 60.4704 180.665 60.3408 180.622 60.2112C180.579 60.0787 180.533 59.9434 180.484 59.8109C180.432 59.6755 180.383 59.5401 180.328 59.4076C179.966 58.4797 179.476 57.6071 178.871 56.8154C177.552 55.1219 175.513 53.9064 173.399 53.987C172.264 54.0303 171.175 54.4277 170.106 54.8223L167.333 55.8448L168.108 55.4876C167.301 55.5597 166.477 55.6345 165.749 55.9917C165.02 56.3488 164.404 57.0487 164.381 57.8667C164.366 58.342 164.553 58.8143 164.493 59.2867C164.392 60.0672 163.675 60.5972 163.303 61.2884C163.086 61.7049 162.986 62.1731 163.015 62.6421V62.6652C163.015 62.7199 163.015 62.7718 163.015 62.8265C163.014 62.8418 163.014 62.8572 163.015 62.8726V62.9647C161.863 62.4636 160.711 61.9422 159.559 61.3835C157.655 60.4474 155.728 59.3472 154.542 57.5729C154.161 56.9969 153.868 56.3748 153.49 55.8045C153.057 55.1907 152.576 54.6128 152.05 54.0763L148.516 50.2514C148.245 50.7612 148.594 51.3632 148.868 51.8701C149.158 52.4018 149.378 52.9692 149.521 53.5579C149.591 53.7497 149.585 53.9609 149.504 54.1483C149.375 54.3029 149.209 54.421 149.02 54.4911C148.697 54.6943 148.451 54.9985 148.319 55.3564C148.187 55.7143 148.178 56.1058 148.292 56.4698C148.417 56.8283 148.633 57.1479 148.92 57.3974C149.206 57.6468 149.552 57.8175 149.925 57.8926C150.174 57.9211 150.419 57.9811 150.653 58.0712C151.08 58.2815 151.281 58.7711 151.587 59.1369C152.142 59.8051 153.027 60.0557 153.871 60.2746C155.178 61.7838 156.538 63.2297 157.845 64.739C159.824 67.023 161.849 69.3473 164.429 70.8911C164.697 71.0524 164.971 71.2022 165.247 71.3404C165.247 71.3865 165.247 71.4326 165.233 71.4787C165.161 71.8191 165.204 72.1739 165.357 72.4868C165.587 72.8526 166.063 72.962 166.486 73.0369L168.439 73.3854C168.421 73.6385 168.39 73.8905 168.344 74.14C168.318 74.2927 168.286 74.4425 168.257 74.5951L168.223 74.791C168.223 74.791 168.223 74.8111 168.223 74.8198C168.223 74.8284 168.223 74.9234 168.203 74.9782C168.182 75.0329 168.203 75.0156 168.203 75.0329V75.1712V75.2288C168.203 75.2892 168.203 75.3526 168.203 75.416C168.269 76.1821 168.779 76.8158 169.288 77.4004L169.562 77.7317C169.128 78.2784 168.824 78.9166 168.672 79.5981C168.585 80.0255 168.543 80.4608 168.545 80.897C168.284 81.1462 168.087 81.4544 167.969 81.7957C167.833 82.2677 167.782 82.7603 167.819 83.2502V83.2848C167.819 83.4662 167.819 83.6448 167.819 83.8262C167.786 84.5144 167.9 85.2018 168.154 85.8424C168.18 85.8942 168.208 85.9403 168.234 85.9893C167.802 86.8361 167.082 87.4956 166.567 88.2935C166.045 89.1792 165.809 90.2042 165.891 91.2287C165.973 92.2533 166.369 93.2278 167.025 94.0194C167.419 94.4745 167.926 94.9122 167.972 95.5171C167.965 95.7914 167.938 96.0648 167.892 96.3351C167.845 96.986 168.145 97.6024 168.306 98.2332C168.442 98.7574 168.447 99.3853 168.148 99.8058C167.845 100.248 167.705 100.781 167.753 101.315C167.9 102.13 167.563 102.945 167.506 103.772C167.48 104.126 167.506 104.486 167.474 104.84C167.432 105.18 167.362 105.515 167.264 105.843C167.264 105.877 167.246 105.915 167.235 105.952C166.523 106.266 165.818 106.592 165.138 106.969C164.771 107.132 164.467 107.412 164.274 107.764C164.159 108.118 164.143 108.496 164.228 108.858L164.841 113.127L164.735 113.081C164.783 113.78 164.833 114.481 164.885 115.186C164.922 115.719 164.971 116.284 165.288 116.71C165.449 116.882 165.595 117.068 165.723 117.266C165.965 117.755 165.677 118.326 165.463 118.827C165.25 119.328 165.175 120.039 165.645 120.31C165.89 120.48 166.154 120.622 166.431 120.731C165.855 123.133 166.385 125.65 166.921 128.061C167.33 129.904 167.74 131.746 168.151 133.585C168.311 134.367 168.402 135.161 168.421 135.958C168.421 136.074 168.421 136.189 168.421 136.304C168.479 137.401 168.673 138.486 168.998 139.536C169.637 141.69 169.023 144.277 169.225 146.624C169.359 147.753 169.584 148.869 169.899 149.962C171.29 155.481 172.532 160.89 173.01 166.564C173.521 167.215 174.215 167.699 175.003 167.955C174.945 168.652 175.023 169.45 175.003 169.856C175.002 170.192 174.95 170.526 174.847 170.847C174.602 171.486 173.983 171.904 173.341 172.128C173.139 172.197 172.935 172.252 172.727 172.301L172.958 172.105C171.641 171.819 170.265 172.061 169.124 172.779C168.945 172.871 168.786 172.996 168.656 173.15C168.526 173.303 168.428 173.481 168.367 173.672C168.319 174.038 168.414 174.408 168.632 174.706C169.266 175.634 170.211 176.305 171.296 176.598C172.368 176.881 173.471 177.035 174.579 177.056L176.613 177.175C176.544 177.291 176.519 177.428 176.543 177.561C176.568 177.694 176.64 177.813 176.745 177.897C176.963 178.057 177.222 178.151 177.491 178.168C178.322 178.291 179.166 178.304 180 178.206C180.209 178.2 180.411 178.127 180.576 177.998C180.614 177.963 180.645 177.921 180.666 177.874C180.687 177.826 180.698 177.775 180.698 177.723C180.698 177.671 180.687 177.62 180.666 177.573C180.645 177.525 180.614 177.483 180.576 177.448C180.698 177.444 180.816 177.404 180.915 177.332C181.013 177.26 181.088 177.16 181.129 177.045C181.209 176.811 181.234 176.562 181.204 176.316C181.149 175.369 181.066 173.992 180.573 173.148C180.488 172.994 180.355 172.873 180.194 172.802C180.033 172.731 179.854 172.715 179.683 172.756C179.365 171.07 179.172 169.362 179.107 167.647C179.615 167.456 180.109 167.233 180.588 166.979C179.173 164.694 179.147 161.794 179.579 159.139C179.751 158.3 179.877 157.453 179.957 156.601C180.052 154.902 179.796 152.978 178.854 151.572C180.571 152.664 182.09 154.039 183.347 155.639C185.337 158.231 186.55 161.371 188.989 163.531C189.31 163.218 189.634 162.907 189.963 162.598C190.477 163.469 190.964 164.359 191.423 165.268C191.783 165.936 192.067 166.642 192.27 167.373C192.494 168.492 192.521 169.641 192.348 170.769C192.28 171.368 192.199 171.964 192.103 172.558C192.064 172.811 192.005 173.062 191.927 173.306C191.926 173.228 191.907 173.152 191.872 173.082C191.72 172.814 191.296 172.935 191.066 173.119C190.655 173.427 190.316 173.82 190.072 174.271C189.938 174.492 189.875 174.748 189.894 175.006C189.931 175.161 190.002 175.305 190.101 175.43C190.201 175.554 190.327 175.655 190.47 175.726C191.538 176.351 192.88 175.899 194.027 175.438C194.343 175.324 194.645 175.172 194.925 174.986C195.501 174.571 195.815 173.888 196.389 173.485C196.694 173.317 196.99 173.13 197.273 172.926C197.806 172.439 197.849 171.619 198.238 171.002C198.883 169.939 200.326 169.666 200.89 168.54C201.544 167.295 200.781 165.726 199.796 164.913Z" fill="url(#paint0_linear)"/>
<path d="M174.965 169.983C174.964 170.315 174.91 170.646 174.807 170.962C174.565 171.593 173.943 172.005 173.304 172.226C172.664 172.448 171.984 172.514 171.333 172.707C171.048 172.772 170.783 172.909 170.564 173.105C169.988 173.681 170.334 174.718 171.008 175.147C171.682 175.576 172.54 175.562 173.341 175.507C175.04 175.408 176.728 175.168 178.387 174.79C178.986 174.649 179.686 174.372 179.781 173.764C179.799 173.571 179.784 173.376 179.735 173.188C179.326 171.127 179.109 169.031 179.087 166.93C179.087 166.791 175.746 166.702 175.435 166.904C174.738 167.362 175.003 169.274 174.965 169.983Z" fill="#A1616A"/>
<path d="M189.862 162.647C190.415 163.563 190.934 164.497 191.42 165.449C191.78 166.107 192.064 166.804 192.267 167.526C192.49 168.629 192.516 169.763 192.345 170.875C192.277 171.465 192.195 172.053 192.097 172.641C192.002 173.217 191.849 173.871 191.357 174.202C191.576 174.332 191.822 174.412 192.077 174.434C192.331 174.456 192.587 174.421 192.826 174.332C193.301 174.148 193.739 173.879 194.119 173.54C196.587 171.503 198.439 168.545 198.531 165.345C198.557 165.095 198.51 164.843 198.396 164.62C198.28 164.463 198.133 164.332 197.964 164.234C196.122 162.979 194.411 161.542 192.857 159.945C192.766 159.822 192.633 159.737 192.483 159.706C192.365 159.707 192.249 159.739 192.149 159.801C191.201 160.276 189.617 160.953 189.223 162.033C189.492 162.169 189.715 162.383 189.862 162.647V162.647Z" fill="#A1616A"/>
<path d="M178.341 173.327C176.267 174.191 174.021 174.502 171.777 174.798C171.489 174.833 171.181 174.856 170.991 174.654C170.915 174.56 170.87 174.446 170.861 174.325C170.851 174.205 170.879 174.085 170.939 173.98C171.061 173.773 171.225 173.592 171.42 173.45L172.909 172.203C171.611 171.928 170.256 172.161 169.124 172.854C168.769 173.031 168.497 173.342 168.37 173.718C168.322 174.081 168.417 174.447 168.635 174.741C169.272 175.659 170.215 176.321 171.296 176.607C172.368 176.885 173.469 177.037 174.577 177.059L176.593 177.175C176.523 177.289 176.499 177.426 176.524 177.558C176.549 177.689 176.621 177.807 176.728 177.889C176.947 178.049 177.207 178.144 177.477 178.162C178.307 178.283 179.15 178.295 179.983 178.197C180.192 178.193 180.394 178.122 180.559 177.992C180.597 177.958 180.627 177.917 180.648 177.87C180.669 177.823 180.68 177.773 180.68 177.722C180.68 177.671 180.669 177.62 180.648 177.573C180.627 177.527 180.597 177.485 180.559 177.451C180.68 177.447 180.798 177.407 180.897 177.336C180.995 177.264 181.07 177.165 181.112 177.051C181.189 176.82 181.214 176.575 181.187 176.333C181.132 175.4 181.048 174.029 180.556 173.214C180.063 172.399 179.038 173.039 178.341 173.327Z" fill="#3F3D56"/>
<path d="M199.744 165.092C199.087 164.605 198.368 164.207 197.607 163.908C197.576 163.885 197.541 163.869 197.504 163.861C197.466 163.853 197.427 163.854 197.39 163.864C197.353 163.873 197.318 163.891 197.289 163.915C197.26 163.94 197.236 163.971 197.221 164.006C195.861 165.852 194.798 167.9 194.073 170.075C193.661 171.313 193.335 172.632 192.5 173.635C192.391 173.767 192.212 173.903 192.062 173.825C191.846 173.715 191.979 173.367 191.858 173.157C191.708 172.892 191.299 173.013 191.054 173.194C190.643 173.5 190.304 173.893 190.064 174.346C189.926 174.561 189.863 174.815 189.885 175.069C189.921 175.221 189.99 175.363 190.087 175.486C190.184 175.608 190.307 175.708 190.447 175.778C191.515 176.397 192.857 175.95 194.001 175.49C194.317 175.378 194.617 175.228 194.897 175.043C195.473 174.637 195.787 173.96 196.36 173.566C196.666 173.4 196.961 173.215 197.244 173.013C197.774 172.532 197.82 171.722 198.206 171.112C198.851 170.066 200.294 169.795 200.859 168.684C201.489 167.442 200.729 165.893 199.744 165.092Z" fill="#3F3D56"/>
<path d="M183.67 107.559C185.933 109.259 186.884 112.28 186.783 115.108C186.682 117.937 185.689 120.65 184.704 123.303C183.292 127.099 181.883 130.894 180.475 134.688C180.632 135.104 180.729 135.541 180.763 135.984C180.808 136.205 180.805 136.432 180.756 136.652C180.706 136.871 180.611 137.078 180.475 137.257C180.343 137.41 180.187 137.528 180.043 137.678C179.629 138.139 179.603 138.83 179.669 139.443C179.735 140.057 179.876 140.691 179.718 141.29C179.652 141.546 179.531 141.788 179.485 142.047C179.452 142.176 179.455 142.311 179.492 142.438C179.529 142.566 179.599 142.681 179.695 142.773C179.983 143.003 180.559 142.929 180.642 143.291C184.515 146.627 187.763 150.626 190.234 155.1C191.167 156.78 192.109 158.64 193.851 159.452C192.153 160.797 190.526 162.229 188.975 163.741C186.541 161.61 185.329 158.508 183.341 155.964C182.083 154.383 180.566 153.026 178.854 151.952C179.796 153.338 180.052 155.239 179.957 156.912C179.877 157.753 179.751 158.588 179.58 159.415C179.133 162.036 179.173 164.887 180.588 167.151C179.078 167.935 177.345 168.517 175.66 168.283C174.602 168.133 173.642 167.585 172.975 166.751C172.497 161.152 171.247 155.806 169.867 150.371C169.551 149.287 169.327 148.178 169.196 147.056C168.995 144.752 169.608 142.188 168.966 140.063C168.642 139.029 168.449 137.959 168.39 136.877C168.39 136.762 168.39 136.65 168.39 136.534C168.37 135.748 168.28 134.966 168.119 134.196L166.892 128.746C166.356 126.364 165.821 123.882 166.4 121.511C166.124 121.404 165.861 121.266 165.616 121.099C165.147 120.831 165.222 120.132 165.435 119.636C165.648 119.141 165.933 118.579 165.694 118.095C165.566 117.899 165.421 117.715 165.259 117.545C164.942 117.125 164.893 116.569 164.856 116.045L164.706 113.965C165.576 114.31 166.3 114.943 166.757 115.759C165.622 114.002 166.181 111.497 167.019 109.578C167.175 108.991 167.516 108.469 167.993 108.092C168.469 107.715 169.055 107.501 169.663 107.484C174.28 106.695 179.919 104.74 183.67 107.559Z" fill="#3F3D56"/>
<path opacity="0.1" d="M181.564 119.386C181.564 119.386 179.294 120.901 179.294 122.035C179.294 123.17 178.718 133.383 178.718 133.383V140.584C178.718 140.584 179.096 144.369 178.718 145.313C178.341 146.258 178.718 150.61 178.718 151.178C178.718 151.745 179.294 145.313 179.294 145.313V138.493L179.87 122.98L181.564 119.386Z" fill="black"/>
<path d="M168.905 66.9251L167.583 66.4095C164.882 65.3265 162.177 64.2407 159.562 62.9705C157.661 62.0459 155.734 60.9543 154.55 59.2118C154.17 58.6358 153.876 58.0309 153.499 57.4635C153.065 56.8566 152.584 56.2854 152.059 55.7555L148.528 51.9824C148.257 52.4865 148.603 53.0798 148.879 53.5781C149.168 54.1032 149.388 54.6638 149.533 55.2457C149.601 55.4331 149.594 55.6396 149.513 55.8218C149.386 55.9759 149.219 56.0933 149.032 56.1616C148.71 56.3588 148.464 56.6578 148.332 57.0112C148.2 57.3645 148.19 57.7518 148.303 58.1116C148.429 58.4672 148.646 58.7837 148.932 59.0302C149.218 59.2766 149.563 59.4444 149.933 59.5171C150.182 59.5459 150.427 59.6049 150.662 59.6928C151.088 59.9031 151.29 60.3841 151.595 60.7441C152.151 61.4037 153.035 61.6542 153.876 61.8674C155.184 63.3565 156.54 64.7822 157.848 66.2712C159.824 68.5236 161.846 70.8163 164.427 72.3428C165.343 72.903 166.347 73.306 167.396 73.5352C167.743 71.2991 168.247 69.0902 168.905 66.9251V66.9251Z" fill="#A1616A"/>
<path opacity="0.15" d="M168.905 66.9251L167.583 66.4095C164.882 65.3265 162.177 64.2407 159.562 62.9705C157.661 62.0459 155.734 60.9543 154.55 59.2118C154.17 58.6358 153.876 58.0309 153.499 57.4635C153.065 56.8566 152.584 56.2854 152.059 55.7555L148.528 51.9824C148.257 52.4865 148.603 53.0798 148.879 53.5781C149.168 54.1032 149.388 54.6638 149.533 55.2457C149.601 55.4331 149.594 55.6396 149.513 55.8218C149.386 55.9759 149.219 56.0933 149.032 56.1616C148.71 56.3588 148.464 56.6578 148.332 57.0112C148.2 57.3645 148.19 57.7518 148.303 58.1116C148.429 58.4672 148.646 58.7837 148.932 59.0302C149.218 59.2766 149.563 59.4444 149.933 59.5171C150.182 59.5459 150.427 59.6049 150.662 59.6928C151.088 59.9031 151.29 60.3841 151.595 60.7441C152.151 61.4037 153.035 61.6542 153.876 61.8674C155.184 63.3565 156.54 64.7822 157.848 66.2712C159.824 68.5236 161.846 70.8163 164.427 72.3428C165.343 72.903 166.347 73.306 167.396 73.5352C167.743 71.2991 168.247 69.0902 168.905 66.9251V66.9251Z" fill="black"/>
<path d="M166.486 74.4453C166.063 74.3705 165.587 74.2668 165.357 73.9039C165.204 73.5962 165.161 73.2459 165.233 72.9102C165.462 70.7393 165.946 68.6029 166.673 66.5449C167.316 67.7344 168.58 68.4285 169.778 69.0536C170.848 69.6482 171.963 70.1568 173.113 70.5743C172.825 70.4821 172.12 74.9119 171.722 75.1827C171.221 75.5341 170.011 75.0588 169.456 74.9638L166.486 74.4453Z" fill="#6BCA6F"/>
<path d="M169.553 73.1377C172.897 73.1377 175.608 70.4271 175.608 67.0835C175.608 63.7398 172.897 61.0292 169.553 61.0292C166.21 61.0292 163.499 63.7398 163.499 67.0835C163.499 70.4271 166.21 73.1377 169.553 73.1377Z" fill="#A1616A"/>
<path d="M168.324 72.0951C168.324 72.0951 172.295 75.4995 170.593 77.7691C168.891 80.0387 167.943 81.5537 170.213 81.7438C172.483 81.9339 180.049 77.9592 180.049 77.9592C180.049 77.9592 173.05 72.2851 174.185 68.8807C175.32 65.4763 168.324 72.0951 168.324 72.0951Z" fill="#FBBEBE"/>
<path d="M172.134 77.4235C171.288 77.6269 170.514 78.0616 169.9 78.679C169.286 79.2965 168.856 80.0723 168.658 80.9201C168.211 82.9593 169.159 85.2404 168.266 87.1184C167.845 88.0112 167.065 88.6794 166.538 89.5176C166.019 90.39 165.784 91.4023 165.865 92.4142C165.947 93.4261 166.341 94.3876 166.993 95.1657C167.387 95.615 167.894 96.0499 167.94 96.6433C167.934 96.9137 167.907 97.1833 167.86 97.4497C167.814 98.092 168.113 98.7026 168.275 99.3248C168.41 99.8403 168.416 100.46 168.116 100.874C167.814 101.309 167.675 101.836 167.724 102.363C167.868 103.17 167.531 103.973 167.474 104.789C167.448 105.14 167.474 105.491 167.442 105.843C167.4 106.177 167.331 106.508 167.235 106.831L166.728 108.7C169.476 109.875 172.396 110.298 175.369 110.244C178.03 110.192 180.654 109.642 183.258 109.092C184.05 108.925 184.842 108.758 185.622 108.542C183.975 106.387 183.799 103.533 183.753 100.822C183.681 96.3038 183.344 91.7932 182.742 87.3142C183.54 85.8078 183.894 84.1287 184.222 82.4552C184.37 81.7812 184.432 81.0912 184.407 80.4016C184.326 78.9615 183.664 77.5934 183.016 76.2887C182.422 75.0963 181.78 73.8405 180.458 73.3249C180.139 73.1904 179.791 73.1397 179.446 73.1775C179.102 73.2153 178.773 73.3404 178.491 73.5409C177.491 74.2956 177.788 75.5974 177.532 76.7092C177.195 78.1493 175.867 79.1833 174.453 79.5894C173.397 79.866 172.304 79.9682 171.215 79.8918C171.109 79.8858 171.006 79.8502 170.918 79.789C170.831 79.7279 170.762 79.6436 170.72 79.5456C170.677 79.4476 170.663 79.3397 170.678 79.2341C170.693 79.1284 170.738 79.029 170.806 78.9471C171.27 78.4344 171.737 77.9131 172.134 77.4235Z" fill="#6BCA6F"/>
<path d="M176.823 100.825C174.582 102.657 172.316 104.506 169.729 105.802C168.211 106.563 166.598 107.124 165.121 107.942C164.755 108.103 164.452 108.378 164.257 108.726C164.139 109.074 164.123 109.449 164.211 109.806L164.867 114.334C165.049 115.561 166.227 116.35 167.171 117.133C167.12 116.721 167.036 116.402 167.232 116.036C167.3 115.922 167.374 115.811 167.454 115.705C167.857 115.094 167.871 114.302 167.773 113.576C167.676 112.85 167.485 112.136 167.523 111.393C167.515 111.27 167.539 111.147 167.592 111.036C167.646 110.925 167.727 110.83 167.828 110.759C171.045 109.213 174.51 108.026 177.762 106.557C178.622 106.209 179.433 105.749 180.173 105.189C180.916 104.619 181.416 103.788 181.573 102.865C181.588 102.805 181.59 102.742 181.58 102.682C181.57 102.621 181.548 102.562 181.515 102.51C181.45 102.439 181.364 102.389 181.27 102.366C179.813 101.836 178.275 101.35 176.823 100.825Z" fill="#A1616A"/>
<path opacity="0.1" d="M170.599 81.8273C169.487 82.0146 168.318 82.5906 167.941 83.6563C167.805 84.1235 167.754 84.6113 167.791 85.0964C167.756 85.7784 167.871 86.4596 168.128 87.0924C168.317 87.4417 168.543 87.7699 168.802 88.0717C171.463 91.4819 172.799 95.7648 175.392 99.2297C175.622 99.535 176.043 99.9325 175.913 100.293C175.866 100.386 175.825 100.482 175.789 100.581C175.777 100.674 175.789 100.768 175.822 100.856C175.855 100.944 175.909 101.022 175.979 101.085C176.117 101.211 176.225 101.368 176.293 101.543C176.342 101.724 176.221 101.96 176.034 101.946C176.345 102.908 177.298 103.469 178.203 103.924C179.706 104.682 181.371 105.278 183.044 105.114C183.358 103.855 183.796 102.433 183.62 101.151C183.437 100.172 183.112 99.2251 182.656 98.3397L181.529 95.88C180.57 93.7803 179.603 91.6662 178.266 89.7854C177.785 89.19 177.379 88.5369 177.059 87.8413C176.717 86.9513 175.775 86.3263 175.204 85.563C174.358 84.4109 173.476 83.2588 172.342 82.4264C171.886 82.075 171.155 81.7352 170.599 81.8273Z" fill="black"/>
<path d="M170.599 81.26C169.487 81.4472 168.318 82.0232 167.941 83.086C167.805 83.5533 167.755 84.041 167.791 84.5262C167.756 85.2081 167.871 85.8893 168.128 86.5222C168.317 86.8714 168.543 87.1997 168.802 87.5014C171.463 90.9116 172.799 95.1945 175.392 98.6594C175.622 98.9647 176.043 99.3622 175.913 99.7222C175.866 99.8156 175.825 99.9118 175.789 100.01C175.777 100.103 175.789 100.198 175.822 100.286C175.855 100.374 175.909 100.452 175.979 100.514C176.117 100.641 176.225 100.798 176.293 100.972C176.342 101.154 176.221 101.39 176.034 101.376C176.345 102.338 177.298 102.899 178.203 103.354C179.706 104.112 181.371 104.708 183.044 104.544C183.358 103.285 183.796 101.862 183.62 100.581C183.437 99.6018 183.112 98.6548 182.656 97.7694L181.529 95.3097C180.57 93.2101 179.603 91.096 178.266 89.2152C177.784 88.6191 177.379 87.965 177.059 87.2681C176.717 86.381 175.775 85.756 175.204 84.9928C174.358 83.8407 173.476 82.6886 172.341 81.8562C171.886 81.5077 171.155 81.1678 170.599 81.26Z" fill="#6BCA6F"/>
<path d="M168.061 57.138C167.258 57.2071 166.431 57.282 165.705 57.6334C164.98 57.9848 164.36 58.6761 164.337 59.4825C164.337 59.952 164.51 60.4186 164.45 60.8823C164.349 61.6542 163.632 62.1755 163.263 62.8582C162.618 64.0448 163.119 65.5541 163.954 66.6025C164.789 67.6509 165.921 68.4573 166.78 69.5C167.457 70.3336 167.947 71.3032 168.216 72.3428C168.485 73.3824 168.528 74.4679 168.341 75.5254C168.234 75.9363 168.183 76.3596 168.188 76.7841C168.254 77.5387 168.764 78.1637 169.271 78.7397C171.737 81.6233 174.019 84.6593 176.103 87.8298C176.728 88.7506 177.29 89.7129 177.785 90.71C178.275 91.7411 178.649 92.8414 179.329 93.7544C179.956 94.5383 180.725 95.1978 181.596 95.6985C183.791 97.0524 186.281 97.8558 188.854 98.0402L187.37 94.3621C187.108 93.7083 186.838 93.0199 186.924 92.32C187.088 90.9951 188.425 90.1253 188.86 88.8638C189.148 88.0515 189.018 87.1558 188.782 86.3291C188.258 84.4656 187.209 82.7893 186.645 80.9374C186.15 79.3135 186.039 77.5968 186.322 75.9229C186.446 75.1855 186.648 74.4453 186.555 73.7051C186.282 71.4528 183.641 70.3756 182.419 68.466C181.63 67.239 181.478 65.7269 181.213 64.2925C180.829 62.1986 180.147 60.1075 178.828 58.437C177.509 56.7665 175.475 55.5568 173.355 55.6461C172.22 55.6893 171.135 56.0838 170.066 56.4698L167.29 57.4808" fill="#3F3D56"/>
<g opacity="0.1">
<path opacity="0.1" d="M180.455 61.8414C180.694 63.1347 180.844 64.4912 181.449 65.6462C181.365 65.1969 181.296 64.7447 181.213 64.3011C181.017 63.1721 180.706 62.0661 180.285 61.0004C180.357 61.2798 180.406 61.5592 180.455 61.8414Z" fill="black"/>
<path opacity="0.1" d="M185.565 73.4718C185.283 75.1467 185.394 76.864 185.887 78.4891C186.023 78.9298 186.175 79.3532 186.36 79.7853C186.12 78.513 186.107 77.2082 186.322 75.9315C186.446 75.1942 186.648 74.4539 186.555 73.7137C186.471 73.0795 186.211 72.4812 185.807 71.9856C185.763 72.4867 185.648 72.9793 185.565 73.4718Z" fill="black"/>
<path opacity="0.1" d="M188.782 86.3378C188.622 85.7966 188.43 85.2657 188.206 84.7479C188.303 85.3036 188.265 85.8745 188.096 86.4127C187.661 87.6714 186.322 88.5441 186.161 89.869C186.074 90.5689 186.342 91.2572 186.607 91.911C186.705 92.1559 186.803 92.4036 186.895 92.6484C186.888 92.5419 186.888 92.4351 186.895 92.3287C187.059 91.0038 188.396 90.1339 188.831 88.8724C189.142 88.0602 189.018 87.1644 188.782 86.3378Z" fill="black"/>
<path opacity="0.1" d="M180.841 93.2475C179.971 92.7453 179.202 92.085 178.574 91.3004C177.892 90.3874 177.517 89.2843 177.028 88.256C176.534 87.2585 175.972 86.2962 175.346 85.3758C173.262 82.2046 170.981 79.1677 168.517 76.2829C168.427 76.1821 168.341 76.0784 168.254 75.9747C168.195 76.2411 168.173 76.5145 168.188 76.787C168.254 77.5416 168.764 78.1666 169.271 78.7426C171.737 81.6262 174.019 84.6622 176.103 87.8326C176.728 88.7535 177.29 89.7158 177.785 90.7129C178.275 91.744 178.649 92.8442 179.329 93.7573C179.956 94.5412 180.725 95.2006 181.596 95.7014C183.791 97.0553 186.281 97.8587 188.854 98.0431L187.846 95.5661C185.362 95.3485 182.964 94.5546 180.841 93.2475V93.2475Z" fill="black"/>
<path opacity="0.1" d="M166.022 67.0518C165.158 66.0091 164.032 65.2171 163.197 64.1571C163.122 64.0592 163.05 63.9584 162.978 63.8518C162.961 64.86 163.307 65.8406 163.954 66.614C164.789 67.6768 165.921 68.4688 166.78 69.5115C167.115 69.9164 167.405 70.3569 167.644 70.8249C167.465 69.4406 166.904 68.1338 166.022 67.0518V67.0518Z" fill="black"/>
</g>
<path d="M53.5924 37.4862L51.5043 35.3865C51.4012 35.2825 51.2785 35.1999 51.1433 35.1435C51.0081 35.0871 50.863 35.0581 50.7165 35.0581C50.57 35.0581 50.425 35.0871 50.2898 35.1435C50.1546 35.1999 50.0319 35.2825 49.9288 35.3865L36.8151 48.3792L31.2678 42.7916C31.0604 42.5842 30.7791 42.4677 30.4858 42.4677C30.1925 42.4677 29.9112 42.5842 29.7038 42.7916L27.5926 44.8798C27.3852 45.0895 27.2689 45.3725 27.2689 45.6675C27.2689 45.9624 27.3852 46.2455 27.5926 46.4552L36.0173 54.9433C36.2265 55.1505 36.5091 55.2667 36.8036 55.2667C37.0981 55.2667 37.3806 55.1505 37.5899 54.9433L53.5924 39.0617C53.6965 38.9586 53.7791 38.8359 53.8355 38.7007C53.8919 38.5655 53.9209 38.4204 53.9209 38.274C53.9209 38.1275 53.8919 37.9824 53.8355 37.8472C53.7791 37.712 53.6965 37.5893 53.5924 37.4862V37.4862Z" fill="#3ACC6C"/>
<path d="M111.485 37.4862L109.397 35.3865C109.294 35.2825 109.171 35.1999 109.036 35.1435C108.901 35.0871 108.756 35.0581 108.609 35.0581C108.463 35.0581 108.318 35.0871 108.182 35.1435C108.047 35.1999 107.924 35.2825 107.821 35.3865L94.7077 48.3792L89.1604 42.7916C88.9529 42.5842 88.6717 42.4677 88.3784 42.4677C88.0851 42.4677 87.8038 42.5842 87.5964 42.7916L85.4852 44.8798C85.2778 45.0895 85.1615 45.3725 85.1615 45.6675C85.1615 45.9624 85.2778 46.2455 85.4852 46.4552L93.9098 54.9433C94.1191 55.1505 94.4017 55.2667 94.6962 55.2667C94.9906 55.2667 95.2732 55.1505 95.4825 54.9433L111.485 39.0617C111.589 38.9586 111.672 38.8359 111.728 38.7007C111.784 38.5655 111.813 38.4204 111.813 38.274C111.813 38.1275 111.784 37.9824 111.728 37.8472C111.672 37.712 111.589 37.5893 111.485 37.4862Z" fill="#3ACC6C"/>
<defs>
<linearGradient id="paint0_linear" x1="174.689" y1="178.269" x2="174.689" y2="50.2456" gradientUnits="userSpaceOnUse">
<stop stop-color="#808080" stop-opacity="0.25"/>
<stop offset="0.54" stop-color="#808080" stop-opacity="0.12"/>
<stop offset="1" stop-color="#808080" stop-opacity="0.1"/>
</linearGradient>
</defs>
</svg>
